<?xml version="1.0" encoding="UTF-8"?>
<svg width="18px" height="18px" viewBox="0 0 18 18" version="1.1" xmlns="http://www.w3.org/2000/svg" xmlns:xlink="http://www.w3.org/1999/xlink">
    <!-- Generator: Sketch 61 (89581) - https://sketch.com -->
    <title>Brands/github</title>
    <desc>Created with Sketch.</desc>
    <defs>
        <path d="M6.02056452,14.3491935 C6.02056452,14.4217742 5.93709677,14.4798387 5.83185484,14.4798387 C5.71209677,14.4907258 5.62862903,14.4326613 5.62862903,14.3491935 C5.62862903,14.2766129 5.71209677,14.2185484 5.81733871,14.2185484 C5.92620968,14.2076613 6.02056452,14.2657258 6.02056452,14.3491935 Z M4.89193548,14.1858871 C4.86653226,14.2584677 4.9391129,14.3419355 5.04798387,14.3637097 C5.14233871,14.4 5.25120968,14.3637097 5.27298387,14.291129 C5.29475806,14.2185484 5.22580645,14.1350806 5.11693548,14.1024194 C5.02258065,14.0770161 4.91733871,14.1133065 4.89193548,14.1858871 Z M6.49596774,14.1241935 C6.39072581,14.1495968 6.31814516,14.2185484 6.32903226,14.3020161 C6.33991935,14.3745968 6.43427419,14.4217742 6.54314516,14.396371 C6.6483871,14.3709677 6.72096774,14.3020161 6.71008065,14.2294355 C6.69919355,14.1604839 6.60120968,14.1133065 6.49596774,14.1241935 Z M8.88387097,0.217741935 C3.85040323,0.217741935 0,4.0391129 0,9.07258065 C0,13.0971774 2.53306452,16.541129 6.15120968,17.7532258 C6.61572581,17.8366935 6.77903226,17.55 6.77903226,17.3141129 C6.77903226,17.0891129 6.76814516,15.8479839 6.76814516,15.0858871 C6.76814516,15.0858871 4.22782258,15.6302419 3.69435484,14.0044355 C3.69435484,14.0044355 3.28064516,12.9483871 2.68548387,12.6762097 C2.68548387,12.6762097 1.85443548,12.1064516 2.74354839,12.1173387 C2.74354839,12.1173387 3.64717742,12.1899194 4.14435484,13.053629 C4.9391129,14.4544355 6.27096774,14.0516129 6.78991935,13.8120968 C6.8733871,13.2314516 7.10927419,12.828629 7.37056452,12.5891129 C5.34193548,12.3641129 3.29516129,12.0701613 3.29516129,8.57903226 C3.29516129,7.58104839 3.57096774,7.08024194 4.1516129,6.44153226 C4.05725806,6.20564516 3.74879032,5.23306452 4.24596774,3.97741935 C5.00443548,3.74153226 6.75,4.95725806 6.75,4.95725806 C7.47580645,4.75403226 8.25604839,4.64879032 9.02903226,4.64879032 C9.80201613,4.64879032 10.5822581,4.75403226 11.3080645,4.95725806 C11.3080645,4.95725806 13.053629,3.73790323 13.8120968,3.97741935 C14.3092742,5.23669355 14.0008065,6.20564516 13.9064516,6.44153226 C14.4870968,7.08387097 14.8427419,7.58467742 14.8427419,8.57903226 C14.8427419,12.0810484 12.7052419,12.3604839 10.6766129,12.5891129 C11.0104839,12.8758065 11.2935484,13.4201613 11.2935484,14.2729839 C11.2935484,15.4959677 11.2826613,17.0092742 11.2826613,17.3068548 C11.2826613,17.5427419 11.4495968,17.8294355 11.9104839,17.7459677 C15.5395161,16.541129 18,13.0971774 18,9.07258065 C18,4.0391129 13.9173387,0.217741935 8.88387097,0.217741935 Z M3.52741935,12.7342742 C3.48024194,12.7705645 3.49112903,12.8540323 3.55282258,12.9229839 C3.6108871,12.9810484 3.69435484,13.0064516 3.74153226,12.9592742 C3.78870968,12.9229839 3.77782258,12.8395161 3.71612903,12.7705645 C3.65806452,12.7125 3.57459677,12.6870968 3.52741935,12.7342742 Z M3.13548387,12.4403226 C3.11008065,12.4875 3.14637097,12.5455645 3.21895161,12.5818548 C3.27701613,12.6181452 3.34959677,12.6072581 3.375,12.5564516 C3.40040323,12.5092742 3.3641129,12.4512097 3.29153226,12.4149194 C3.21895161,12.3931452 3.1608871,12.4040323 3.13548387,12.4403226 Z M4.31129032,13.7322581 C4.25322581,13.7794355 4.275,13.8883065 4.35846774,13.9572581 C4.44193548,14.0407258 4.54717742,14.0516129 4.59435484,13.9935484 C4.64153226,13.946371 4.61975806,13.8375 4.54717742,13.7685484 C4.46733871,13.6850806 4.35846774,13.6741935 4.31129032,13.7322581 Z M3.89758065,13.1987903 C3.83951613,13.2350806 3.83951613,13.3294355 3.89758065,13.4129032 C3.95564516,13.496371 4.05362903,13.5326613 4.10080645,13.496371 C4.15887097,13.4491935 4.15887097,13.3548387 4.10080645,13.271371 C4.05,13.1879032 3.95564516,13.1516129 3.89758065,13.1987903 Z" id="path-1"></path>
    </defs>
    <g id="Page-1" stroke="none" stroke-width="1" fill="none" fill-rule="evenodd">
        <g id="mobile-assets---single-asset" transform="translate(-292.000000, -640.000000)">
            <g id="social-icons" transform="translate(136.000000, 640.000000)">
                <g id="Brands/github" transform="translate(156.000000, 0.000000)">
                    <mask id="mask-2" fill="white">
                        <use xlink:href="#path-1"></use>
                    </mask>
                    <g id="Mask"></g>
                    <g id="Color/Black" mask="url(#mask-2)" fill="#242A42" fill-rule="evenodd">
                        <rect id="Black" x="0" y="0" width="18" height="18"></rect>
                    </g>
                </g>
            </g>
        </g>
    </g>
</svg>