<?xml version="1.0" encoding="UTF-8"?>
<svg width="18px" height="16px" viewBox="0 0 18 16" version="1.1" xmlns="http://www.w3.org/2000/svg" xmlns:xlink="http://www.w3.org/1999/xlink">
    <!-- Generator: Sketch 61 (89581) - https://sketch.com -->
    <title>Brands/medium-m</title>
    <desc>Created with Sketch.</desc>
    <defs>
        <path d="M2.13842975,4.7714876 C2.1607438,4.55206612 2.07520661,4.33264463 1.91157025,4.1838843 L0.234297521,2.1607438 L0.234297521,1.85950413 L5.44834711,1.85950413 L9.47975207,10.6995868 L13.0239669,1.85950413 L17.996281,1.85950413 L17.996281,2.1607438 L16.5607438,3.53677686 C16.4380165,3.62975207 16.3747934,3.78595041 16.4008264,3.93842975 L16.4008264,14.0541322 C16.3747934,14.2066116 16.4380165,14.3628099 16.5607438,14.4557851 L17.9628099,15.8318182 L17.9628099,16.1330579 L10.9078512,16.1330579 L10.9078512,15.8318182 L12.3619835,14.422314 C12.5033058,14.2809917 12.5033058,14.2363636 12.5033058,14.0206612 L12.5033058,5.84628099 L8.4607438,16.1070248 L7.91404959,16.1070248 L3.21322314,5.84628099 L3.21322314,12.7227273 C3.17231405,13.0128099 3.26900826,13.3028926 3.47355372,13.511157 L5.36280992,15.8020661 L5.36280992,16.1033058 L0.00743801653,16.1033058 L0.00743801653,15.8057851 L1.89669421,13.511157 C2.09752066,13.3028926 2.19049587,13.0090909 2.13842975,12.7227273 L2.13842975,4.7714876 Z" id="path-1"></path>
    </defs>
    <g id="Page-1" stroke="none" stroke-width="1" fill="none" fill-rule="evenodd">
        <g id="mobile-assets---single-asset" transform="translate(-253.000000, -641.000000)">
            <g id="social-icons" transform="translate(136.000000, 640.000000)">
                <g id="Brands/medium-m" transform="translate(117.000000, 0.000000)">
                    <mask id="mask-2" fill="white">
                        <use xlink:href="#path-1"></use>
                    </mask>
                    <g id="Mask"></g>
                    <g id="Color/Black" mask="url(#mask-2)" fill="#242A42" fill-rule="evenodd">
                        <rect id="Black" x="0" y="0" width="18" height="18"></rect>
                    </g>
                </g>
            </g>
        </g>
    </g>
</svg>