<?xml version="1.0" encoding="UTF-8"?>
<svg width="18px" height="18px" viewBox="0 0 18 18" version="1.1" xmlns="http://www.w3.org/2000/svg" xmlns:xlink="http://www.w3.org/1999/xlink">
    <!-- Generator: Sketch 61 (89581) - https://sketch.com -->
    <title>Brands/reddit-alien</title>
    <desc>Created with Sketch.</desc>
    <defs>
        <path d="M15.9693277,7.03361345 C15.4021008,7.03361345 14.9029412,7.26806723 14.5361345,7.63487395 C13.1861345,6.70084034 11.3672269,6.09957983 9.35168067,6.03529412 L10.3991597,1.31596639 L13.7344538,2.06470588 C13.7344538,2.88151261 14.4,3.54705882 15.2168067,3.54705882 C16.0487395,3.54705882 16.7180672,2.86260504 16.7180672,2.04579832 C16.7180672,1.2289916 16.052521,0.544537815 15.2168067,0.544537815 C14.6344538,0.544537815 14.1315126,0.896218487 13.8819328,1.37647059 L10.1987395,0.559663866 C10.0134454,0.510504202 9.83193277,0.642857143 9.78277311,0.828151261 L8.63319328,6.03151261 C6.63277311,6.11470588 4.83277311,6.71596639 3.4789916,7.65 C3.11218487,7.26806723 2.59411765,7.03361345 2.02689076,7.03361345 C-0.0756302521,7.03361345 -0.763865546,9.85462185 1.16092437,10.8189076 C1.09285714,11.1176471 1.06260504,11.4352941 1.06260504,11.7529412 C1.06260504,14.9218487 4.63235294,17.4894958 9.01512605,17.4894958 C13.4168067,17.4894958 16.9865546,14.9218487 16.9865546,11.7529412 C16.9865546,11.4352941 16.952521,11.102521 16.8693277,10.8037815 C18.7563025,9.83571429 18.0605042,7.03361345 15.9693277,7.03361345 L15.9693277,7.03361345 Z M4.21260504,11.0193277 C4.21260504,10.187395 4.87815126,9.51806723 5.71386555,9.51806723 C6.53067227,9.51806723 7.19621849,10.1836134 7.19621849,11.0193277 C7.19621849,11.8361345 6.53067227,12.5016966 5.71386555,12.5016966 C4.88193277,12.5054622 4.21260504,11.8361345 4.21260504,11.0193277 L4.21260504,11.0193277 Z M12.3163866,14.555042 C10.939916,15.9315126 7.05630252,15.9315126 5.67983193,14.555042 C5.52857143,14.4226891 5.52857143,14.1882353 5.67983193,14.0369748 C5.81218487,13.9046218 6.04663866,13.9046218 6.1789916,14.0369748 C7.2302521,15.1147059 10.7168067,15.1336134 11.8134454,14.0369748 C11.9457983,13.9046218 12.1802521,13.9046218 12.312605,14.0369748 C12.4676471,14.1882353 12.4676471,14.4226891 12.3163866,14.555042 Z M12.2861345,12.5054622 C11.4693277,12.5054622 10.8037815,11.839916 10.8037815,11.0231092 C10.8037815,10.1911765 11.4693277,9.52184874 12.2861345,9.52184874 C13.1180672,9.52184874 13.787395,10.187395 13.787395,11.0231092 C13.7836134,11.8361345 13.1180672,12.5054622 12.2861345,12.5054622 Z" id="path-1"></path>
    </defs>
    <g id="Page-1" stroke="none" stroke-width="1" fill="none" fill-rule="evenodd">
        <g id="mobile-assets---single-asset" transform="translate(-214.000000, -640.000000)">
            <g id="social-icons" transform="translate(136.000000, 640.000000)">
                <g id="Brands/reddit-alien" transform="translate(78.000000, 0.000000)">
                    <mask id="mask-2" fill="white">
                        <use xlink:href="#path-1"></use>
                    </mask>
                    <g id="Mask"></g>
                    <g id="Color/Black" mask="url(#mask-2)" fill="#242A42" fill-rule="evenodd">
                        <rect id="Black" x="0" y="0" width="18" height="18"></rect>
                    </g>
                </g>
            </g>
        </g>
    </g>
</svg>