<?xml version="1.0" encoding="UTF-8"?>
<svg width="18px" height="16px" viewBox="0 0 18 16" version="1.1" xmlns="http://www.w3.org/2000/svg" xmlns:xlink="http://www.w3.org/1999/xlink">
    <!-- Generator: Sketch 61 (89581) - https://sketch.com -->
    <title>Brands/telegram-plane</title>
    <desc>Created with Sketch.</desc>
    <defs>
        <path d="M17.9477679,2.81651786 L15.2316964,15.6254464 C15.0267857,16.5294643 14.4924107,16.7544643 13.7330357,16.3285714 L9.59464286,13.2790179 L7.59776786,15.1995536 C7.37678571,15.4205357 7.19196429,15.6053571 6.76607143,15.6053571 L7.06339286,11.390625 L14.7334821,4.45982143 C15.0669643,4.1625 14.6611607,3.99776786 14.2151786,4.29508929 L4.73303571,10.265625 L0.650892857,8.98794643 C-0.237053571,8.71071429 -0.253125,8.1 0.835714286,7.67410714 L16.8026786,1.52276786 C17.5419643,1.24553571 18.1888393,1.6875 17.9477679,2.81651786 Z" id="path-1"></path>
    </defs>
    <g id="Page-1" stroke="none" stroke-width="1" fill="none" fill-rule="evenodd">
        <g id="mobile-assets---single-asset" transform="translate(-175.000000, -641.000000)">
            <g id="social-icons" transform="translate(136.000000, 640.000000)">
                <g id="Brands/telegram-plane" transform="translate(39.000000, 0.000000)">
                    <mask id="mask-2" fill="white">
                        <use xlink:href="#path-1"></use>
                    </mask>
                    <g id="Mask"></g>
                    <g id="Color/Black" mask="url(#mask-2)" fill="#242A42" fill-rule="evenodd">
                        <rect id="Black" x="0" y="0" width="18" height="18"></rect>
                    </g>
                </g>
            </g>
        </g>
    </g>
</svg>