<?xml version="1.0" encoding="UTF-8"?>
<svg width="18px" height="16px" viewBox="0 0 18 16" version="1.1" xmlns="http://www.w3.org/2000/svg" xmlns:xlink="http://www.w3.org/1999/xlink">
    <!-- Generator: Sketch 61 (89581) - https://sketch.com -->
    <title>Brands/twitter</title>
    <desc>Created with Sketch.</desc>
    <defs>
        <path d="M16.1497266,5.33376562 C16.1611523,5.49365625 16.1611523,5.65358203 16.1611523,5.81347266 C16.1611523,10.6903477 12.44925,16.3096523 5.66497266,16.3096523 C3.57486328,16.3096523 1.63325391,15.7042969 0,14.653582 C0.296964844,14.6878242 0.58246875,14.69925 0.890859375,14.69925 C2.61544922,14.69925 4.20303516,14.1167812 5.47080469,13.123125 C3.84897656,13.0888477 2.48983594,12.0266719 2.02155469,10.5647344 C2.25,10.5989766 2.47841016,10.6218281 2.71828125,10.6218281 C3.04948828,10.6218281 3.38073047,10.576125 3.68908594,10.4962148 C1.99873828,10.1535469 0.730933594,8.66879297 0.730933594,6.87564844 L0.730933594,6.82998047 C1.22203125,7.10409375 1.79314453,7.27541016 2.39842969,7.29822656 C1.40477344,6.63577734 0.753785156,5.50508203 0.753785156,4.22588672 C0.753785156,3.54062109 0.936492187,2.91244922 1.25630859,2.36422266 C3.07230469,4.60279687 5.80201172,6.06469922 8.86289062,6.224625 C8.80579687,5.95051172 8.77151953,5.66500781 8.77151953,5.37946875 C8.77151953,3.34645312 10.4161992,1.69038281 12.4606055,1.69038281 C13.5227812,1.69038281 14.4821602,2.1358125 15.1560352,2.85535547 C15.9897656,2.69546484 16.7892539,2.38707422 17.4974062,1.96449609 C17.2232578,2.82111328 16.6407891,3.54065625 15.8755781,3.99747656 C16.6179727,3.91756641 17.3375156,3.7119375 17.9999297,3.42643359 C17.4974766,4.15736719 16.8692695,4.80835547 16.1497266,5.33376562 Z" id="path-1"></path>
    </defs>
    <g id="Page-1" stroke="none" stroke-width="1" fill="none" fill-rule="evenodd">
        <g id="mobile-assets---single-asset" transform="translate(-136.000000, -641.000000)">
            <g id="social-icons" transform="translate(136.000000, 640.000000)">
                <g id="Brands/twitter">
                    <mask id="mask-2" fill="white">
                        <use xlink:href="#path-1"></use>
                    </mask>
                    <g id="Mask"></g>
                    <g id="Color/Black" mask="url(#mask-2)" fill="#242A42" fill-rule="evenodd">
                        <rect id="Black" x="0" y="0" width="18" height="18"></rect>
                    </g>
                </g>
            </g>
        </g>
    </g>
</svg>