<?xml version="1.0" encoding="UTF-8"?>
<svg width="18px" height="14px" viewBox="0 0 18 14" version="1.1" xmlns="http://www.w3.org/2000/svg" xmlns:xlink="http://www.w3.org/1999/xlink">
    <!-- Generator: Sketch 61 (89581) - https://sketch.com -->
    <title>Brands/youtube</title>
    <desc>Created with Sketch.</desc>
    <defs>
        <path d="M17.5945073,4.66695985 C17.3881971,3.89013504 16.7803358,3.27833212 16.0085365,3.07070803 C14.6095949,2.69343066 9,2.69343066 9,2.69343066 C9,2.69343066 3.39043796,2.69343066 1.9914635,3.07070803 C1.21966423,3.27836496 0.61180292,3.89013504 0.405492701,4.66695985 C0.0306459854,6.075 0.0306459854,9.01274453 0.0306459854,9.01274453 C0.0306459854,9.01274453 0.0306459854,11.9504891 0.405492701,13.3585292 C0.61180292,14.135354 1.21966423,14.7216679 1.9914635,14.929292 C3.39043796,15.3065693 9,15.3065693 9,15.3065693 C9,15.3065693 14.609562,15.3065693 16.0085365,14.929292 C16.7803358,14.7216679 17.3881971,14.135354 17.5945073,13.3585292 C17.969354,11.9504891 17.969354,9.01274453 17.969354,9.01274453 C17.969354,9.01274453 17.969354,6.075 17.5945073,4.66695985 Z M7.16534672,11.6799964 L7.16534672,6.3454927 L11.853854,9.01281022 L7.16534672,11.6799964 Z" id="path-1"></path>
    </defs>
    <g id="Page-1" stroke="none" stroke-width="1" fill="none" fill-rule="evenodd">
        <g id="mobile-assets---single-asset" transform="translate(-175.000000, -672.000000)">
            <g id="social-icons" transform="translate(136.000000, 640.000000)">
                <g id="Brands/youtube" transform="translate(39.000000, 30.000000)">
                    <mask id="mask-2" fill="white">
                        <use xlink:href="#path-1"></use>
                    </mask>
                    <g id="Mask"></g>
                    <g id="Color/Black" mask="url(#mask-2)" fill="#242A42" fill-rule="evenodd">
                        <rect id="Black" x="0" y="0" width="18" height="18"></rect>
                    </g>
                </g>
            </g>
        </g>
    </g>
</svg>