<svg id="Fantom_Logo_" data-name="Fantom Logo " xmlns="http://www.w3.org/2000/svg" width="10" height="35" viewBox="0 0 10 35">
  <defs>
    <style>
      .cls-1 {
        fill: #fff;
      }
    </style>
  </defs>
  <path id="Path_2" class="cls-1" d="M10,35h0L0,28.973V6.027L10,0,20,6.027V28.967L10,35ZM1.94,19.252v8.554L10,32.662,18.06,27.8V19.252L10,24.109Zm7.088-5.436h0L2.917,17.5l6.11,3.685,0-7.369Zm1.94,0v7.369L17.087,17.5ZM1.94,8.376v7.371l6.117-3.685Zm16.12,0h0l-6.117,3.689,6.116,3.684,0-7.373ZM10,2.34h0L2.9,6.617,10,10.894l7.095-4.279L10,2.34Z"/>
</svg>
