<?xml version="1.0" encoding="UTF-8"?>
<svg width="15px" height="20px" viewBox="0 0 15 20" version="1.1" xmlns="http://www.w3.org/2000/svg" xmlns:xlink="http://www.w3.org/1999/xlink">
    <!-- Generator: Sketch 61 (89581) - https://sketch.com -->
    <title>fantom logo bold</title>
    <desc>Created with Sketch.</desc>
    <defs>
        <rect id="path-1" x="0" y="14.625" width="14" height="3.375"></rect>
    </defs>
    <g id="Page-1" stroke="none" stroke-width="1" fill="none" fill-rule="evenodd">
        <g id="mobile-assets---single-asset" transform="translate(-105.000000, -95.000000)">
            <g id="Group" transform="translate(106.000000, 95.000000)">
                <g id="fantom-logo-bold" transform="translate(0.000000, 1.000000)">
                    <g id="rounded-copy" transform="translate(0.000000, 0.262500)">
                        <path d="M7.41616796,0.132717653 L11.8515672,2.49209124 C12.1842294,2.66904811 12.1842294,2.95595189 11.8515672,3.13290876 L7.41616796,5.49228235 C7.08350577,5.66923922 6.5441538,5.66923922 6.21149162,5.49228235 L1.77609238,3.13290876 C1.4434302,2.95595189 1.4434302,2.66904811 1.77609238,2.49209124 L6.21149162,0.132717653 C6.5441538,-0.0442392178 7.08350577,-0.0442392178 7.41616796,0.132717653 Z" id="Rectangle" stroke="#426ED5"></path>
                        <path d="M7.41616796,5.90771765 L11.8515672,8.26709124 C12.1842294,8.44404811 12.1842294,8.73095189 11.8515672,8.90790876 L7.41616796,11.2672823 C7.08350577,11.4442392 6.5441538,11.4442392 6.21149162,11.2672823 L1.77609238,8.90790876 C1.4434302,8.73095189 1.4434302,8.44404811 1.77609238,8.26709124 L6.21149162,5.90771765 C6.5441538,5.73076078 7.08350577,5.73076078 7.41616796,5.90771765 Z" id="Rectangle-Copy" stroke="#426ED5"></path>
                        <mask id="mask-2" fill="white">
                            <use xlink:href="#path-1"></use>
                        </mask>
                        <g id="MASK"></g>
                        <path d="M7.41616796,11.9077177 L11.8515672,14.2670912 C12.1842294,14.4440481 12.1842294,14.7309519 11.8515672,14.9079088 L7.41616796,17.2672823 C7.08350577,17.4442392 6.5441538,17.4442392 6.21149162,17.2672823 L1.77609238,14.9079088 C1.4434302,14.7309519 1.4434302,14.4440481 1.77609238,14.2670912 L6.21149162,11.9077177 C6.5441538,11.7307608 7.08350577,11.7307608 7.41616796,11.9077177 Z" id="Rectangle-Copy-2" stroke="#426ED5" mask="url(#mask-2)"></path>
                        <path d="M11.8776596,1.2375 C12.7513485,1.76975806 13.1808511,1.96935484 13.1808511,3.3" id="Path-11" stroke="#426ED5"></path>
                        <path d="M0.335106383,13.875 C1.20879533,14.4072581 1.63829787,14.6068548 1.63829787,15.9375" id="Path-11-Copy" stroke="#426ED5" transform="translate(0.986702, 14.906250) scale(-1, -1) translate(-0.986702, -14.906250) "></path>
                        <line x1="6.81382979" y1="11.2125" x2="6.81382979" y2="5.775" id="Line-2-Copy-2" stroke="#426ED5" stroke-linecap="square"></line>
                        <line x1="12.1138298" y1="14.5169492" x2="12.1138298" y2="2.87866495" id="Line-2-Copy" stroke="#426ED5" stroke-linecap="square"></line>
                        <line x1="1.5393617" y1="14.5169492" x2="1.5393617" y2="2.87866495" id="Line-2" stroke="#426ED5" stroke-linecap="square"></line>
                    </g>
                </g>
            </g>
        </g>
    </g>
</svg>