<?xml version="1.0" encoding="UTF-8"?>
<svg width="122px" height="28px" viewBox="0 0 122 28" version="1.1" xmlns="http://www.w3.org/2000/svg" xmlns:xlink="http://www.w3.org/1999/xlink">
    <!-- Generator: Sketch 61 (89581) - https://sketch.com -->
    <title>fantom logo white v3</title>
    <desc>Created with Sketch.</desc>
    <defs>
        <rect id="path-1" x="0.710108605" y="21.328125" width="20.5931495" height="4.921875"></rect>
    </defs>
    <g id="Page-1" stroke="none" stroke-width="1" fill="none" fill-rule="evenodd">
        <g id="mobile-menu" transform="translate(-21.000000, -17.000000)">
            <g id="fantom-logo-white-v3" transform="translate(21.000000, 18.000000)">
                <g id="fantom-new-logo" transform="translate(0.879699, 0.500000)">
                    <g id="rounded-copy">
                        <path d="M11.6032863,0.193546578 L18.1322347,3.63429973 C18.6219164,3.89236183 18.6219164,4.31076317 18.1322347,4.56882527 L11.6032863,8.00957842 C11.1136045,8.26764053 10.3196735,8.26764053 9.82999171,8.00957842 L3.30104337,4.56882527 C2.81136158,4.31076317 2.81136158,3.89236183 3.30104337,3.63429973 L9.82999171,0.193546578 C10.3196735,-0.064515526 11.1136045,-0.064515526 11.6032863,0.193546578 Z" id="Rectangle" stroke="#416ED5" stroke-width="1.5625"></path>
                        <path d="M11.6032863,8.58968628 L18.1322347,12.0304394 C18.6219164,12.2885015 18.6219164,12.7069029 18.1322347,12.964965 L11.6032863,16.4057181 C11.1136045,16.6637802 10.3196735,16.6637802 9.82999171,16.4057181 L3.30104337,12.964965 C2.81136158,12.7069029 2.81136158,12.2885015 3.30104337,12.0304394 L9.82999171,8.58968628 C10.3196735,8.33162418 11.1136045,8.33162418 11.6032863,8.58968628 Z" id="Rectangle-Copy" stroke="#416ED5" stroke-width="1.5625"></path>
                        <mask id="mask-2" fill="white">
                            <use xlink:href="#path-1"></use>
                        </mask>
                        <g id="Rectangle"></g>
                        <path d="M11.6032863,17.3718554 L18.1322347,20.8126086 C18.6219164,21.0706707 18.6219164,21.489072 18.1322347,21.7471341 L11.6032863,25.1878872 C11.1136045,25.4459493 10.3196735,25.4459493 9.82999171,25.1878872 L3.30104337,21.7471341 C2.81136158,21.489072 2.81136158,21.0706707 3.30104337,20.8126086 L9.82999171,17.3718554 C10.3196735,17.1137933 11.1136045,17.1137933 11.6032863,17.3718554 Z" id="Rectangle-Copy-2" stroke="#416ED5" stroke-width="1.5625" mask="url(#mask-2)"></path>
                        <path d="M19.2746145,1.12418025 C20.5529582,1.89623907 21.1813877,2.18576113 21.1813877,4.11590819" id="Path-11" stroke="#416ED5" stroke-width="1.5625"></path>
                        <path d="M0.128352964,20.9760036 C1.40669662,21.7480624 2.03512607,22.0375845 2.03512607,23.9677315" id="Path-11-Copy" stroke="#416ED5" stroke-width="1.5625" transform="translate(1.081740, 22.471868) scale(-1, -1) translate(-1.081740, -22.471868) "></path>
                        <line x1="2.88722589" y1="21.183364" x2="2.88722589" y2="4.19166652" id="Line-2" stroke="#416ED5" stroke-width="1.5625" stroke-linecap="square"></line>
                        <line x1="18.5496213" y1="21.183364" x2="18.5496213" y2="4.19166652" id="Line-2-Copy" stroke="#416ED5" stroke-width="1.5625" stroke-linecap="square"></line>
                        <line x1="10.716639" y1="16.3579963" x2="10.716639" y2="8.44439338" id="Line-2-Copy-2" stroke="#416ED5" stroke-width="1.5625" stroke-linecap="square"></line>
                    </g>
                </g>
                <path d="M34.2553258,22.375 L34.2553258,10.39375 L37.5823935,10.39375 L37.5823935,8.2 L34.2553258,8.2 L34.2553258,6.625 C34.2553258,4.84375 35.035401,3.953125 36.5955514,3.953125 C37.0466792,3.953125 37.5260025,4.028125 38.0335213,4.178125 L38.0335213,4.178125 L38.0335213,1.84375 C37.4132206,1.65625 36.7271303,1.5625 35.9752506,1.5625 C34.5278822,1.5625 33.4047619,1.975 32.6058897,2.8 C31.8070175,3.625 31.4075815,4.825 31.4075815,6.4 L31.4075815,6.4 L31.4075815,8.2 L28.672619,8.2 L28.672619,10.39375 L31.4075815,10.39375 L31.4075815,22.375 L34.2553258,22.375 Z M45.9564536,22.571875 C47.0466792,22.571875 48.0006266,22.346875 48.8182957,21.896875 C49.6359649,21.446875 50.2515664,20.8 50.6651003,19.95625 L50.6651003,19.95625 L50.6651003,22.375 L53.4846491,22.375 L53.4846491,8.2 L50.6651003,8.2 L50.6651003,10.50625 C50.2327694,9.6625 49.6124687,9.0109375 48.804198,8.5515625 C47.9959273,8.0921875 47.0466792,7.8625 45.9564536,7.8625 C44.7346491,7.8625 43.6444236,8.171875 42.6857769,8.790625 C41.7271303,9.409375 40.9799499,10.28125 40.4442356,11.40625 C39.9085213,12.53125 39.6406642,13.825 39.6406642,15.2875 C39.6406642,16.75 39.9038221,18.0296875 40.4301378,19.1265625 C40.9564536,20.2234375 41.6942356,21.071875 42.6434837,21.671875 C43.5927318,22.271875 44.6970551,22.571875 45.9564536,22.571875 Z M46.6331454,20.321875 C45.3361529,20.321875 44.3258145,19.88125 43.6021303,19 C42.8784461,18.11875 42.516604,16.88125 42.516604,15.2875 C42.516604,13.675 42.8784461,12.4140625 43.6021303,11.5046875 C44.3258145,10.5953125 45.3267544,10.140625 46.6049499,10.140625 C47.9019424,10.140625 48.9028822,10.58125 49.6077694,11.4625 C50.3126566,12.34375 50.6651003,13.6 50.6651003,15.23125 C50.6651003,16.84375 50.3126566,18.0953125 49.6077694,18.9859375 C48.9028822,19.8765625 47.9113409,20.321875 46.6331454,20.321875 Z M60.4771303,22.375 L60.4771303,14.303125 C60.4771303,13.046875 60.8389724,12.04375 61.5626566,11.29375 C62.2863409,10.54375 63.2496867,10.16875 64.4526942,10.16875 C65.5053258,10.16875 66.2713033,10.45 66.7506266,11.0125 C67.2299499,11.575 67.4696115,12.475 67.4696115,13.7125 L67.4696115,13.7125 L67.4696115,22.375 L70.3173559,22.375 L70.3173559,13.54375 C70.3173559,9.75625 68.6162281,7.8625 65.2139724,7.8625 C64.1237469,7.8625 63.1510025,8.1015625 62.2957393,8.5796875 C61.4404762,9.0578125 60.7872807,9.746875 60.3361529,10.646875 L60.3361529,10.646875 L60.0823935,8.2 L57.4320175,8.2 C57.5823935,9.38125 57.6575815,10.7125 57.6575815,12.19375 L57.6575815,12.19375 L57.6575815,22.375 L60.4771303,22.375 Z M79.8474311,22.571875 C80.6369048,22.571875 81.341792,22.46875 81.9620927,22.2625 L81.9620927,22.2625 L81.9620927,19.95625 C81.4545739,20.10625 80.9564536,20.18125 80.4677318,20.18125 C79.7158521,20.18125 79.1284461,19.9796875 78.7055138,19.5765625 C78.2825815,19.1734375 78.0711153,18.484375 78.0711153,17.509375 L78.0711153,17.509375 L78.0711153,10.39375 L81.9902882,10.39375 L81.9902882,8.2 L78.0711153,8.2 L78.0711153,3.671875 L75.2233709,4.65625 L75.2233709,8.2 L72.460213,8.2 L72.460213,10.39375 L75.2233709,10.39375 L75.2233709,17.734375 C75.2233709,19.309375 75.6275063,20.509375 76.4357769,21.334375 C77.2440476,22.159375 78.3812657,22.571875 79.8474311,22.571875 Z M90.7308897,22.571875 C92.1030702,22.571875 93.3154762,22.271875 94.3681078,21.671875 C95.4207393,21.071875 96.2337093,20.21875 96.8070175,19.1125 C97.3803258,18.00625 97.6669799,16.7125 97.6669799,15.23125 C97.6669799,13.75 97.3803258,12.4515625 96.8070175,11.3359375 C96.2337093,10.2203125 95.4207393,9.3625 94.3681078,8.7625 C93.3154762,8.1625 92.1030702,7.8625 90.7308897,7.8625 C89.3399123,7.8625 88.1181078,8.1625 87.0654762,8.7625 C86.0128446,9.3625 85.1998747,10.2203125 84.6265664,11.3359375 C84.0532581,12.4515625 83.766604,13.75 83.766604,15.23125 C83.766604,16.7125 84.0532581,18.00625 84.6265664,19.1125 C85.1998747,20.21875 86.0128446,21.071875 87.0654762,21.671875 C88.1181078,22.271875 89.3399123,22.571875 90.7308897,22.571875 Z M90.7026942,20.321875 C89.4057018,20.321875 88.4047619,19.890625 87.6998747,19.028125 C86.9949875,18.165625 86.6425439,16.9 86.6425439,15.23125 C86.6425439,13.6 86.9996867,12.34375 87.7139724,11.4625 C88.4282581,10.58125 89.4338972,10.140625 90.7308897,10.140625 C92.0090852,10.140625 93.0006266,10.58125 93.7055138,11.4625 C94.410401,12.34375 94.7628446,13.6 94.7628446,15.23125 C94.7628446,16.9 94.4151003,18.165625 93.7196115,19.028125 C93.0241228,19.890625 92.0184837,20.321875 90.7026942,20.321875 Z M103.813596,22.375 L103.813596,14.359375 C103.813596,13.065625 104.133145,12.04375 104.772243,11.29375 C105.411341,10.54375 106.276003,10.16875 107.366228,10.16875 C108.306078,10.16875 108.987469,10.45 109.410401,11.0125 C109.833333,11.575 110.044799,12.465625 110.044799,13.684375 L110.044799,13.684375 L110.044799,22.375 L112.892544,22.375 L112.892544,14.359375 C112.892544,13.065625 113.207393,12.04375 113.837093,11.29375 C114.466792,10.54375 115.326754,10.16875 116.41698,10.16875 C117.35683,10.16875 118.038221,10.45 118.461153,11.0125 C118.884085,11.575 119.095551,12.465625 119.095551,13.684375 L119.095551,13.684375 L119.095551,22.375 L121.943296,22.375 L121.943296,13.54375 C121.943296,9.75625 120.364348,7.8625 117.206454,7.8625 C116.153822,7.8625 115.209273,8.10625 114.372807,8.59375 C113.536341,9.08125 112.901942,9.746875 112.469612,10.590625 C111.79292,8.771875 110.35495,7.8625 108.155702,7.8625 C107.121867,7.8625 106.219612,8.096875 105.448935,8.565625 C104.678258,9.034375 104.086153,9.7 103.672619,10.5625 L103.672619,10.5625 L103.41886,8.2 L100.768484,8.2 C100.91886,9.38125 100.994048,10.7125 100.994048,12.19375 L100.994048,12.19375 L100.994048,22.375 L103.813596,22.375 Z" id="fantom" fill="#416ED5" fill-rule="nonzero"></path>
            </g>
        </g>
    </g>
</svg>