<svg xmlns="http://www.w3.org/2000/svg" width="40" height="37.241" viewBox="0 0 40 37.241">
  <defs>
    <style>
      .cls-1 {
        fill: #7f8c8d;
      }

      .cls-2 {
        fill: #95a5a5;
      }

      .cls-3 {
        fill: #d1d4d1;
      }

      .cls-4 {
        fill: #e4c05c;
      }

      .cls-5 {
        fill: #ecf0f1;
      }
    </style>
  </defs>
  <g id="litecoin" transform="translate(0 -0.051)">
    <path id="Shape" class="cls-1" d="M20,18.621c0,.234-.007.462-.021.69a17.79,17.79,0,0,1-.614,4.138c-.124.469-.269.931-.428,1.379a18.311,18.311,0,0,1-2.076,4.138c-.317.476-.662.938-1.021,1.379a18.585,18.585,0,0,1-14.462,6.9c-.462,0-.924-.014-1.379-.055V.055C.455.014.917,0,1.379,0A18.585,18.585,0,0,1,15.841,6.9a16.987,16.987,0,0,1,1.021,1.379,18.309,18.309,0,0,1,2.076,4.138c.159.448.3.91.428,1.379a17.79,17.79,0,0,1,.614,4.138C19.993,18.159,20,18.386,20,18.621Z" transform="translate(20 0.051)"/>
    <g id="Group" transform="translate(29.297 6.875)">
      <path id="Shape-2" data-name="Shape" class="cls-2" d="M7.207,1.379H.69A.69.69,0,0,1,.69,0h5.5A16.965,16.965,0,0,1,7.207,1.379Z" transform="translate(0.358 0.073)"/>
      <path id="Shape-3" data-name="Shape" class="cls-2" d="M7.207,0C6.89.476,6.545.938,6.186,1.379H.69A.69.69,0,0,1,.69,0H7.207Z" transform="translate(0.358 22.142)"/>
      <path id="Shape-4" data-name="Shape" class="cls-2" d="M10.014,1.379H.69A.69.69,0,0,1,.69,0h8.9C9.745.448,9.89.91,10.014,1.379Z" transform="translate(0.055 5.59)"/>
      <path id="Shape-5" data-name="Shape" class="cls-2" d="M6.241.69c0,.234-.007.462-.021.69H.69A.69.69,0,0,1,.69,0H6.221C6.235.228,6.241.455,6.241.69Z" transform="translate(4.462 11.107)"/>
      <path id="Shape-6" data-name="Shape" class="cls-2" d="M10.014,0c-.124.469-.269.931-.428,1.379H.69A.69.69,0,0,1,.69,0h9.324Z" transform="translate(0.055 16.624)"/>
    </g>
    <circle id="Oval" class="cls-3" cx="18.621" cy="18.621" r="18.621" transform="translate(0 0.051)"/>
    <path id="Shape-7" data-name="Shape" class="cls-4" d="M13.1,26.207a13.1,13.1,0,1,1,13.1-13.1A13.1,13.1,0,0,1,13.1,26.207Z" transform="translate(5.517 5.568)"/>
    <g id="Group-2" data-name="Group" transform="translate(2.031 2.109)">
      <path id="Shape-8" data-name="Shape" class="cls-5" d="M.69,1.383a.726.726,0,0,1-.49-.2A.711.711,0,0,1,0,.694.689.689,0,0,1,.055.431.8.8,0,0,1,.2.2a.69.69,0,0,1,1.179.49,1.044,1.044,0,0,1-.014.138.451.451,0,0,1-.041.124.526.526,0,0,1-.062.124l-.082.1A.726.726,0,0,1,.69,1.383Z" transform="translate(15.9 0.007)"/>
      <path id="Shape-9" data-name="Shape" class="cls-5" d="M.69,1.383a.726.726,0,0,1-.49-.2A.711.711,0,0,1,0,.694.689.689,0,0,1,.055.431.8.8,0,0,1,.2.2a.69.69,0,0,1,1.179.49,1.044,1.044,0,0,1-.014.138.451.451,0,0,1-.041.124.526.526,0,0,1-.062.124l-.082.1A.726.726,0,0,1,.69,1.383Z" transform="translate(15.9 31.731)"/>
      <path id="Shape-10" data-name="Shape" class="cls-5" d="M.69,1.374a.745.745,0,0,1-.269-.048A.706.706,0,0,1,.2,1.174.691.691,0,0,1,.2.2.606.606,0,0,1,.421.05.7.7,0,0,1,1.173.2a.675.675,0,0,1,0,.973A.667.667,0,0,1,.69,1.374Z" transform="translate(11.796 0.554)"/>
      <path id="Shape-11" data-name="Shape" class="cls-5" d="M.69,1.371A.717.717,0,0,1,.2,1.164.691.691,0,0,1,.2.191a.722.722,0,0,1,.979,0,.385.385,0,0,1,.083.1,1.108,1.108,0,0,1,.069.117.894.894,0,0,1,.034.131.468.468,0,0,1,.014.138.667.667,0,0,1-.2.483.571.571,0,0,1-.228.152A.68.68,0,0,1,.69,1.371Z" transform="translate(20.003 31.205)"/>
      <path id="Shape-12" data-name="Shape" class="cls-5" d="M.69,1.379a.678.678,0,0,1-.262-.048A.873.873,0,0,1,.2,1.18a1.048,1.048,0,0,1-.083-.1A.522.522,0,0,1,.055.952.439.439,0,0,1,.014.828.91.91,0,0,1,0,.69.688.688,0,0,1,.055.428.624.624,0,0,1,.427.055a.662.662,0,0,1,.4-.041A.451.451,0,0,1,.952.055a.526.526,0,0,1,.124.062l.1.082a.8.8,0,0,1,.145.228A.578.578,0,0,1,1.379.69a.951.951,0,0,1-.014.138.451.451,0,0,1-.041.124.522.522,0,0,1-.062.124l-.082.1a1.152,1.152,0,0,1-.1.082,1.09,1.09,0,0,1-.124.069.855.855,0,0,1-.124.035A.477.477,0,0,1,.69,1.379Z" transform="translate(7.969 2.134)"/>
      <path id="Shape-13" data-name="Shape" class="cls-5" d="M.69,1.378A.683.683,0,0,1,.055.427.64.64,0,0,1,.2.2.688.688,0,0,1,.952.054.788.788,0,0,1,1.179.2a.7.7,0,0,1,0,.979.8.8,0,0,1-.228.145A.69.69,0,0,1,.69,1.378Z" transform="translate(23.831 29.612)"/>
      <path id="Shape-14" data-name="Shape" class="cls-5" d="M.69,1.386A.689.689,0,0,1,.2,1.179a.451.451,0,0,1-.09-.1C.09,1.041.07,1,.049.958A.729.729,0,0,1,.014.827.426.426,0,0,1,0,.7.736.736,0,0,1,.049.427.684.684,0,0,1,1.173.207a.6.6,0,0,1,.152.221A.748.748,0,0,1,1.38.7a.82.82,0,0,1-.014.131c-.014.049-.028.09-.041.131s-.041.083-.062.118a.45.45,0,0,1-.09.1.6.6,0,0,1-.221.152A.681.681,0,0,1,.69,1.386Z" transform="translate(4.685 4.652)"/>
      <path id="Shape-15" data-name="Shape" class="cls-5" d="M.69,1.374a.683.683,0,0,1-.262-.048.7.7,0,0,1-.221-.152A.676.676,0,0,1,0,.684.688.688,0,0,1,.055.422.738.738,0,0,1,.428.049.7.7,0,0,1,1.179.2a.666.666,0,0,1,.2.483.683.683,0,0,1-.2.49A.671.671,0,0,1,.69,1.374Z" transform="translate(27.113 27.092)"/>
      <path id="Shape-16" data-name="Shape" class="cls-5" d="M.69,1.381a.688.688,0,0,1-.262-.055A.8.8,0,0,1,.2,1.181l-.083-.1A.523.523,0,0,1,.055.954.449.449,0,0,1,.014.829.97.97,0,0,1,0,.692.726.726,0,0,1,.2.2.8.8,0,0,1,.428.057a.633.633,0,0,1,.524,0A.648.648,0,0,1,1.18.2a.725.725,0,0,1,.2.49.713.713,0,0,1-.2.49.651.651,0,0,1-.228.145A.688.688,0,0,1,.69,1.381Z" transform="translate(2.162 7.94)"/>
      <path id="Shape-17" data-name="Shape" class="cls-5" d="M.676,1.366a.683.683,0,1,1,.49-.2A.726.726,0,0,1,.676,1.366Z" transform="translate(29.651 23.817)"/>
      <path id="Shape-18" data-name="Shape" class="cls-5" d="M.683,1.38A.674.674,0,0,1,.2,1.173.667.667,0,0,1,0,.69.745.745,0,0,1,.048.421.605.605,0,0,1,.2.2.31.31,0,0,1,.3.117.657.657,0,0,1,.421.048.722.722,0,0,1,.552.014.683.683,0,0,1,1.372.69a.424.424,0,0,1-.014.131.709.709,0,0,1-.034.131c-.021.041-.041.083-.062.117a.438.438,0,0,1-.09.1A.689.689,0,0,1,.683,1.38Z" transform="translate(0.583 11.769)"/>
      <path id="Shape-19" data-name="Shape" class="cls-5" d="M.69,1.369A.683.683,0,0,1,0,.679.667.667,0,0,1,.2.2a.7.7,0,0,1,.972,0,.673.673,0,0,1,.207.483.689.689,0,0,1-.207.49A.667.667,0,0,1,.69,1.369Z" transform="translate(31.224 19.986)"/>
      <path id="Shape-20" data-name="Shape" class="cls-5" d="M.69,1.376a.69.69,0,0,1-.262-.055A.8.8,0,0,1,.2,1.176.714.714,0,0,1,.055.948a.653.653,0,0,1,0-.524A.794.794,0,0,1,.2.2.8.8,0,0,1,.427.052a.693.693,0,0,1,.524,0A.8.8,0,0,1,1.179.2a.8.8,0,0,1,.145.227.649.649,0,0,1,0,.524.721.721,0,0,1-.145.228.8.8,0,0,1-.228.145A.691.691,0,0,1,.69,1.376Z" transform="translate(0.038 15.876)"/>
      <path id="Shape-21" data-name="Shape" class="cls-5" d="M.676,1.366a.683.683,0,1,1,.49-.2A.726.726,0,0,1,.676,1.366Z" transform="translate(31.775 15.886)"/>
      <path id="Shape-22" data-name="Shape" class="cls-5" d="M.683,1.377A.682.682,0,0,1,0,.688.7.7,0,0,1,.2.2.679.679,0,0,1,.3.115.634.634,0,0,1,.421.053.746.746,0,0,1,.552.012.708.708,0,0,1,1.172.2a.7.7,0,0,1,.09.11c.021.034.041.076.062.117a.722.722,0,0,1,.034.131.426.426,0,0,1,.014.131.683.683,0,0,1-.69.69Z" transform="translate(0.583 19.978)"/>
      <path id="Shape-23" data-name="Shape" class="cls-5" d="M.69,1.371A.689.689,0,0,1,.2,1.164.667.667,0,0,1,0,.681.683.683,0,0,1,.2.191a.713.713,0,0,1,.972,0,.689.689,0,0,1,.207.49.706.706,0,0,1-.69.69Z" transform="translate(31.224 11.778)"/>
      <path id="Shape-24" data-name="Shape" class="cls-5" d="M.69,1.376a.688.688,0,0,1-.262-.055A.8.8,0,0,1,.2,1.176.7.7,0,0,1,.2.2.8.8,0,0,1,.428.052a.693.693,0,0,1,.524,0A.647.647,0,0,1,1.18.2a.7.7,0,0,1,0,.979.651.651,0,0,1-.228.145A.69.69,0,0,1,.69,1.376Z" transform="translate(2.162 23.807)"/>
      <path id="Shape-25" data-name="Shape" class="cls-5" d="M.676,1.366a.683.683,0,1,1,.49-.2A.726.726,0,0,1,.676,1.366Z" transform="translate(29.651 7.955)"/>
      <path id="Shape-26" data-name="Shape" class="cls-5" d="M.69,1.38a.468.468,0,0,1-.138-.014.894.894,0,0,1-.131-.034C.38,1.31.345,1.29.3,1.269a.624.624,0,0,1-.1-.09A.7.7,0,0,1,.049.959.736.736,0,0,1,0,.69.676.676,0,0,1,.049.428.7.7,0,0,1,.2.207.644.644,0,0,1,.3.117C.345.1.38.076.421.055L.552.014a.658.658,0,0,1,.4.041.735.735,0,0,1,.372.372A.682.682,0,0,1,1.379.69a.718.718,0,0,1-.055.269.6.6,0,0,1-.152.221.7.7,0,0,1-.221.152A.68.68,0,0,1,.69,1.38Z" transform="translate(4.686 27.086)"/>
      <path id="Shape-27" data-name="Shape" class="cls-5" d="M.69,1.385A.682.682,0,0,1,.428,1.33.735.735,0,0,1,.055.957.688.688,0,0,1,0,.7.677.677,0,0,1,.207.206a.677.677,0,0,1,.972,0,.682.682,0,0,1,.2.49.667.667,0,0,1-.2.483A.677.677,0,0,1,.69,1.385Z" transform="translate(27.113 4.653)"/>
      <path id="Shape-28" data-name="Shape" class="cls-5" d="M.69,1.38a.69.69,0,0,1-.262-.055A.707.707,0,0,1,.2,1.18a.656.656,0,0,1-.083-.11A.382.382,0,0,1,.055.952.416.416,0,0,1,.014.821.819.819,0,0,1,0,.69.725.725,0,0,1,.2.2.786.786,0,0,1,.427.055a.659.659,0,0,1,.4-.041A.429.429,0,0,1,.952.056a.522.522,0,0,1,.124.062,1.11,1.11,0,0,1,.1.083.646.646,0,0,1,.145.228A.578.578,0,0,1,1.379.69a.858.858,0,0,1-.014.131.427.427,0,0,1-.041.131.382.382,0,0,1-.062.117c-.027.041-.055.076-.082.11l-.1.083a.519.519,0,0,1-.124.062.449.449,0,0,1-.124.041A.941.941,0,0,1,.69,1.38Z" transform="translate(7.969 29.61)"/>
      <path id="Shape-29" data-name="Shape" class="cls-5" d="M.69,1.374a.578.578,0,0,1-.262-.055A.662.662,0,0,1,0,.684.688.688,0,0,1,.055.422.8.8,0,0,1,.2.194.715.715,0,0,1,.952.05a.8.8,0,0,1,.228.145.7.7,0,0,1,0,.98.72.72,0,0,1-.228.145A.577.577,0,0,1,.69,1.374Z" transform="translate(23.831 2.14)"/>
      <path id="Shape-30" data-name="Shape" class="cls-5" d="M.69,1.379A.689.689,0,0,1,.2,1.172.845.845,0,0,1,.048.951.68.68,0,0,1,0,.689.745.745,0,0,1,.048.42.84.84,0,0,1,.2.2.689.689,0,0,1,.821.014.738.738,0,0,1,.952.048c.041.021.083.041.117.062a.444.444,0,0,1,.1.09A.606.606,0,0,1,1.324.42a.748.748,0,0,1,.055.269.682.682,0,0,1-.055.262.607.607,0,0,1-.152.221.448.448,0,0,1-.1.09c-.034.021-.076.041-.117.062s-.082.028-.131.041A.827.827,0,0,1,.69,1.379Z" transform="translate(11.796 31.197)"/>
      <path id="Shape-31" data-name="Shape" class="cls-5" d="M.69,1.369a.682.682,0,0,1-.262-.048A.829.829,0,0,1,.2,1.169.691.691,0,0,1,.2.2a.708.708,0,0,1,.979,0,.668.668,0,0,1,.2.483.683.683,0,0,1-.2.49.66.66,0,0,1-.228.152A.682.682,0,0,1,.69,1.369Z" transform="translate(20.003 0.559)"/>
      <path id="Shape-32" data-name="Shape" class="cls-5" d="M14.483,12.414l-1.159,3.448H.91L2.469,9.883,0,10.345V7.586l3.228-.607L5.048,0H9.876L8.434,6.007l2.6-.49V8.276l-3.29.614V8.9L6.9,12.414Z" transform="translate(9.693 7.597)"/>
    </g>
  </g>
</svg>
