<svg xmlns="http://www.w3.org/2000/svg" xmlns:xlink="http://www.w3.org/1999/xlink" width="295" height="36" viewBox="0 0 295 36">
    <defs>
        <path id="a" d="M0 .365h294.995v34.778H0z"/>
    </defs>
    <g fill="none" fill-rule="evenodd">
        <path fill="#FEFEFE" d="M32.914 28.468h4.01v-8.076h10.814v-4.066H36.925V13.27h13.021V9.204H32.914zM57.384 20.392l2.577-6.264 2.671 6.264h-5.248zm.256-11.188l-7.96 19.264h4.38l2.063-5.012h7.817l2.137 5.012h4.382L62.27 9.204h-4.63zM87.512 21.215L78.01 9.204h-4.525v19.264h4.01V16.447l9.504 12.021h4.524V9.204h-4.01zM95.974 13.27h6.512v15.198h4.01V13.27h6.511V9.204H95.974z"/>
        <g transform="translate(0 .492)">
            <mask id="b" fill="#fff">
                <use xlink:href="#a"/>
            </mask>
            <path fill="#FEFEFE" d="M120.15 23.921h9.013V12.79h-9.013V23.92zm10.018-15.198h-11.024c-.831 0-1.537.297-2.119.886-.59.6-.886 1.319-.886 2.161v13.17c0 .842.296 1.558.886 2.15a2.846 2.846 0 0 0 2.119.897h11.024c.83 0 1.54-.3 2.13-.897.584-.592.874-1.308.874-2.15V11.77a2.98 2.98 0 0 0-.874-2.16c-.59-.59-1.3-.887-2.13-.887zM155.507 8.712l-6.87 8.897-6.871-8.897h-4.153v19.264h4.01V15.11l7.014 9.092 7.014-9.092v12.867h4.01V8.712zM12.216 12.35l6.257-3.667v7.327l-6.257-3.66zm6.257 15.637l-8.244 4.832-8.244-4.827v-8.499l8.244 4.828 8.244-4.828v8.494zM1.985 8.687l6.258 3.664-6.258 3.662V8.687zm9.236 5.405l6.258 3.66-6.258 3.663v-7.323zm-1.984 7.323l-6.254-3.66 6.254-3.662v7.322zm8.248-14.477l-7.254 4.251-.002-.001-.002.001L2.97 6.94l7.26-4.25 7.255 4.25zM.001 6.354v22.799l10.228 5.99 10.23-5.994V6.354L10.229.365.001 6.355zM171.258 8.69h12.812v1.028h-11.637v7.741h10.943v1.029h-10.943v8.498h11.77v1.029h-12.945z" mask="url(#b)"/>
            <path fill="#FEFEFE" d="M184.55 8.69h1.36l6.033 8.498 6.166-8.498h1.334l-6.726 9.392 7.1 9.933h-1.414l-6.46-9.04-6.486 9.04h-1.388l7.154-9.933zM202.22 18.38h6.699c.854 0 1.579-.131 2.174-.393.597-.262 1.074-.6 1.429-1.016.355-.414.613-.874.774-1.38.16-.504.24-1.01.24-1.515 0-.361-.053-.789-.16-1.286a3.951 3.951 0 0 0-.64-1.434c-.32-.46-.77-.848-1.348-1.165-.579-.315-1.348-.472-2.31-.472h-6.859v8.66zm-1.176-9.69h8.114c.534 0 1.126.064 1.776.19.65.125 1.255.383 1.814.77.561.39 1.029.939 1.402 1.652.374.712.56 1.646.56 2.801 0 1.696-.517 3.004-1.548 3.924-1.032.92-2.509 1.38-4.43 1.38h-6.513v8.607h-1.175V8.69zM216.818 8.69h1.175v18.296h10.81v1.029h-11.985zM256.934 18.19c.694 0 1.338-.086 1.935-.257a4.11 4.11 0 0 0 1.535-.798 3.802 3.802 0 0 0 1.014-1.382c.249-.559.374-1.225.374-2.002 0-.722-.134-1.34-.401-1.854a3.564 3.564 0 0 0-1.066-1.26 4.392 4.392 0 0 0-1.549-.702 7.665 7.665 0 0 0-1.842-.217h-6.78v8.471h6.78zm-7.954-9.5h7.954c.836 0 1.62.086 2.35.258.73.17 1.369.45 1.921.838.552.387.983.897 1.295 1.53.31.632.466 1.417.466 2.354 0 1.298-.36 2.394-1.081 3.288-.72.894-1.721 1.448-3.002 1.664v.055c.872.108 1.56.344 2.068.704s.886.802 1.134 1.327c.25.522.41 1.1.481 1.731.07.632.107 1.263.107 1.894v1.11c0 .362.018.7.054 1.014.035.318.092.61.172.881.08.27.191.497.334.677h-1.308c-.25-.45-.387-.98-.413-1.583a42.148 42.148 0 0 1-.04-1.882c0-.65-.027-1.294-.081-1.935a4.153 4.153 0 0 0-.507-1.72c-.284-.504-.733-.91-1.348-1.217-.613-.306-1.48-.46-2.602-.46h-6.78v8.797h-1.174V8.69zM265.796 8.69h12.811v1.028h-11.636v7.741h10.942v1.029h-10.942v8.498h11.77v1.029h-12.945zM288.696 18.19c.694 0 1.338-.086 1.934-.257a4.104 4.104 0 0 0 1.535-.798 3.802 3.802 0 0 0 1.015-1.382c.25-.559.373-1.225.373-2.002 0-.722-.133-1.34-.4-1.854a3.575 3.575 0 0 0-1.067-1.26 4.388 4.388 0 0 0-1.548-.702 7.672 7.672 0 0 0-1.842-.217h-6.78v8.471h6.78zm-7.954-9.5h7.954c.836 0 1.62.086 2.349.258.73.17 1.369.45 1.922.838.55.387.983.897 1.294 1.53.31.632.467 1.417.467 2.354 0 1.298-.36 2.394-1.082 3.288-.719.894-1.72 1.448-3.001 1.664v.055c.871.108 1.56.344 2.068.704.507.36.885.802 1.134 1.327.25.522.41 1.1.48 1.731.07.632.108 1.263.108 1.894v1.11c0 .362.018.7.053 1.014.036.318.093.61.173.881.08.27.19.497.334.677h-1.308c-.25-.45-.387-.98-.413-1.583a42.175 42.175 0 0 1-.04-1.882 23 23 0 0 0-.081-1.935 4.166 4.166 0 0 0-.508-1.72c-.284-.504-.733-.91-1.348-1.217-.612-.306-1.48-.46-2.601-.46h-6.78v8.797h-1.174V8.69zM229.399 22.422a9.087 9.087 0 0 0 1.626 2.248 8.896 8.896 0 0 0 4.15 2.39 15.504 15.504 0 0 1-2.026-4.498c-1.254.109-2.508.06-3.75-.14m6.74 5.69a.432.432 0 0 1-.058-.004 9.732 9.732 0 0 1-5.654-2.832 9.955 9.955 0 0 1-2.147-3.264.426.426 0 1 1 .478-.583 14.47 14.47 0 0 0 4.662.246.424.424 0 0 1 .456.322 14.715 14.715 0 0 0 2.597 5.424.433.433 0 0 1 .03.477.421.421 0 0 1-.364.214" mask="url(#b)"/>
            <path fill="#FEFEFE" d="M236.367 27.28a8.96 8.96 0 0 0 1.959.014c.06-2.526.727-4.999 1.92-7.192a15.142 15.142 0 0 1-6.247 2.364 14.696 14.696 0 0 0 2.368 4.815zm1.042.918c-.443 0-.886-.03-1.327-.09a.418.418 0 0 1-.278-.163 15.57 15.57 0 0 1-2.749-5.74.426.426 0 0 1 .365-.53 14.375 14.375 0 0 0 8.368-3.882.419.419 0 0 1 .576 0c.163.153.18.408.04.583a14.956 14.956 0 0 0-3.237 9.298.427.427 0 0 1-.364.424c-.461.066-.927.1-1.394.1zM235.491 9.246a9.023 9.023 0 0 0-4.466 2.473 9.14 9.14 0 0 0-2.203 3.663 15.133 15.133 0 0 1 4.302-1.089 15.524 15.524 0 0 1 2.367-5.047m-7.307 7.321a.426.426 0 0 1-.262-.092.434.434 0 0 1-.15-.427 10.02 10.02 0 0 1 2.655-4.935 9.831 9.831 0 0 1 6.01-2.884.43.43 0 0 1 .366.7 14.71 14.71 0 0 0-2.934 5.867.424.424 0 0 1-.375.323c-1.79.148-3.515.621-5.127 1.406a.432.432 0 0 1-.183.042" mask="url(#b)"/>
            <path fill="#FEFEFE" d="M234.677 14.213c2.906 0 5.78.832 8.23 2.394.09-.092.2-.22.29-.34.73-.916 1.346-1.91 1.84-2.964a9.106 9.106 0 0 0-1.24-1.584c-1.878-1.906-4.466-2.876-7.105-2.653a14.676 14.676 0 0 0-2.671 5.162c.218-.01.437-.015.656-.015m8.252 3.347a.412.412 0 0 1-.233-.07 14.505 14.505 0 0 0-9.202-2.37.43.43 0 0 1-.357-.15c-.089-.105-.121-.248-.089-.382a15.582 15.582 0 0 1 3.104-6.207.422.422 0 0 1 .284-.152 9.76 9.76 0 0 1 7.96 2.884 10.018 10.018 0 0 1 1.482 1.941c.072.121.08.27.022.398a15.598 15.598 0 0 1-2.039 3.345c-.165.22-.499.621-.778.733a.416.416 0 0 1-.154.03" mask="url(#b)"/>
            <path fill="#FEFEFE" d="M228.98 21.475a14.42 14.42 0 0 0 3.963.244 16.01 16.01 0 0 1-.027-6.54 14.355 14.355 0 0 0-4.361 1.256 9.241 9.241 0 0 0 .424 5.04m2.861 1.144a15.37 15.37 0 0 1-3.258-.351.425.425 0 0 1-.302-.257 10.11 10.11 0 0 1-.509-5.964.432.432 0 0 1 .23-.295 15.18 15.18 0 0 1 5.423-1.487.416.416 0 0 1 .357.15c.088.105.121.247.088.38a15.118 15.118 0 0 0 .007 7.2c.03.122.007.249-.064.351a.426.426 0 0 1-.301.181 15.35 15.35 0 0 1-1.67.092" mask="url(#b)"/>
            <path fill="#FEFEFE" d="M233.798 15.097a15.136 15.136 0 0 0-.008 6.532 14.37 14.37 0 0 0 7.998-3.836 6.88 6.88 0 0 0 .526-.55 14.523 14.523 0 0 0-8.516-2.146m-.333 7.432a.425.425 0 0 1-.41-.324 16 16 0 0 1-.007-7.617.425.425 0 0 1 .377-.323 15.317 15.317 0 0 1 9.735 2.508.435.435 0 0 1 .109.612c-.291.403-.398.54-.9 1.03-2.462 2.327-5.524 3.747-8.858 4.112a.407.407 0 0 1-.046.002" mask="url(#b)"/>
            <path fill="#FEFEFE" d="M243.62 17.092a15.68 15.68 0 0 1 2.709 2.487 9.33 9.33 0 0 0-.568-4.877 8.406 8.406 0 0 0-.223-.497 15.632 15.632 0 0 1-1.918 2.887m2.946 3.885a.422.422 0 0 1-.334-.165 14.784 14.784 0 0 0-1.22-1.41 14.778 14.778 0 0 0-2.255-1.873.43.43 0 0 1-.08-.645 14.776 14.776 0 0 0 2.455-3.787.423.423 0 0 1 .36-.25c.187-.018.305.072.386.208.276.465.493.897.664 1.32.8 1.967.954 4.197.434 6.28a.426.426 0 0 1-.41.322" mask="url(#b)"/>
            <path fill="#FEFEFE" d="M243.052 17.734c-.094.101-.19.2-.287.3-.12.122-.243.237-.365.353-1.979 2.476-3.116 5.58-3.225 8.779a8.893 8.893 0 0 0 4.623-2.496 9.167 9.167 0 0 0 2.306-4.024 14.81 14.81 0 0 0-1.091-1.243 14.872 14.872 0 0 0-1.96-1.67m-4.31 10.37a.422.422 0 0 1-.422-.429c0-3.574 1.217-7.067 3.426-9.837.013-.016.062-.064.076-.078.117-.11.231-.218.344-.331.175-.177.344-.36.51-.543a.415.415 0 0 1 .546-.07 15.572 15.572 0 0 1 3.678 3.472c.079.104.107.24.075.366a10.036 10.036 0 0 1-2.58 4.623 9.733 9.733 0 0 1-5.593 2.823.471.471 0 0 1-.06.004M234.91 13.17c.8.813.8 2.13 0 2.942-.801.812-2.1.812-2.902 0-.8-.813-.8-2.13 0-2.942a2.032 2.032 0 0 1 2.901 0" mask="url(#b)"/>
            <path fill="#FEFEFE" d="M243.654 16.396c.4.406.4 1.064 0 1.47-.4.406-1.05.406-1.45 0-.4-.406-.4-1.064 0-1.47.4-.407 1.05-.407 1.45 0M234.19 21.366c.401.406.401 1.064 0 1.47-.4.406-1.05.406-1.45 0-.4-.406-.4-1.064 0-1.47.4-.406 1.05-.406 1.45 0" mask="url(#b)"/>
        </g>
    </g>
</svg>
