<svg xmlns="http://www.w3.org/2000/svg" viewBox="0 0 18 29.94" width="18" heigth="29.94"><defs><style>.cls-1{fill:#fff;}</style></defs><title>Rocket</title><path class="cls-1" d="M15.55,16.5l-.21-.21C16.07,4.35,9.51.34,9.19.15L8.94,0,8.69.15C8.37.34,1.77,4.37,2.54,16.4l-.09.1c-2,2.06-4.52,7.35.45,12.65l.74.79.1-1.08a27.22,27.22,0,0,1,.93-5.59h8.66a27.22,27.22,0,0,1,.93,5.59l.1,1.08.74-.79C20.07,23.85,17.57,18.56,15.55,16.5ZM8.94,1.16a11.94,11.94,0,0,1,3.37,4.09H5.59A12.08,12.08,0,0,1,8.94,1.16ZM5.11,6.23h7.67c1.49,3.33,2.42,8.48.68,16.06h-9C2.68,14.72,3.62,9.57,5.11,6.23ZM2.88,27.63A7.64,7.64,0,0,1,2.51,18l.15-.2a40.74,40.74,0,0,0,.9,5.12l.08.37A23.27,23.27,0,0,0,2.88,27.63Zm11.41-4.57,0-.17a41.28,41.28,0,0,0,.91-5.26l.25.34a7.64,7.64,0,0,1-.37,9.66A21,21,0,0,0,14.29,23.06Z"/><rect class="cls-1" x="6.29" y="25.93" width="0.98" height="2.23"/><rect class="cls-1" x="8.64" y="25.93" width="0.98" height="5.16"/><rect class="cls-1" x="10.99" y="25.93" width="0.98" height="1.95"/></svg>