
<svg id="Layer_1" data-name="Layer 1" xmlns="http://www.w3.org/2000/svg"  width="30" height="31" viewBox="0 0 33.19 33.91"><defs><style>.cls-1{fill:#fff;}</style></defs><title>cup</title><path class="cls-1" d="M24.82,9.86V3.2H3.13V25.07a5.66,5.66,0,0,0,5.64,5.64H24.82a5.79,5.79,0,0,0,5.24-5.78V9.86ZM23.75,29.64h-15a4.57,4.57,0,0,1-4.56-4.57V4.27H23.76V29.64ZM29,24.93a4.72,4.72,0,0,1-4.17,4.69V10.91H29Z"/><path class="cls-1" d="M21,13.57H7.29V7.26H21ZM8.36,12.5H19.93V8.34H8.36Z"/><rect class="cls-1" x="7.82" y="16.56" width="12.64" height="1.07"/><rect class="cls-1" x="7.82" y="20.66" width="12.64" height="1.07"/><rect class="cls-1" x="7.82" y="24.74" width="12.64" height="1.07"/></svg>