<svg xmlns="http://www.w3.org/2000/svg" viewBox="0 0 25 26"  width="25" heigth="26"><defs><style>.cls-1{fill:#fff;}</style></defs><title>asset</title><path class="cls-1" d="M20.14,6.41V.23H0V20.54a5.24,5.24,0,0,0,5.23,5.23H20.14v0A5.37,5.37,0,0,0,25,20.41v-14Zm-1,18.37H5.23A4.24,4.24,0,0,1,1,20.54V1.22H19.15V24.78ZM24,20.41a4.38,4.38,0,0,1-3.87,4.35V7.39H24Z"/><path class="cls-1" d="M16.58,9.86H3.86V4H16.58Zm-11.73-1H15.6V5H4.85Z"/><rect class="cls-1" x="4.35" y="12.63" width="11.74" height="0.99"/><rect class="cls-1" x="4.35" y="16.44" width="11.74" height="0.99"/><rect class="cls-1" x="4.35" y="20.23" width="11.74" height="0.99"/></svg>