<svg xmlns="http://www.w3.org/2000/svg" viewBox="0 0 22 32"  width="25" height="34"><defs><style>.cls-1{fill:#fff;}</style></defs><title>asset</title><path class="cls-1" d="M11,16.45a5.35,5.35,0,1,1,5.35-5.34A5.35,5.35,0,0,1,11,16.45Zm0-9.71a4.37,4.37,0,1,0,4.37,4.37A4.37,4.37,0,0,0,11,6.74Z"/><path class="cls-1" d="M22,11.11a11,11,0,1,0-15.2,10.1V31.85l4.47-3.65,4.48,3.65V21A11,11,0,0,0,22,11.11ZM14.73,29.79l-3.5-2.85L7.74,29.79V21.57a11.06,11.06,0,0,0,7-.16ZM11,21.09a10,10,0,1,1,10-10A10,10,0,0,1,11,21.09Z"/></svg>