<svg xmlns="http://www.w3.org/2000/svg" viewBox="0 0 24 26"  width="24" heigth="26"><defs><style>.cls-1{fill:#fff;}</style></defs><title>asset</title><path class="cls-1" d="M22.13,5.92h-.27V2.18a1.77,1.77,0,0,0,0-.23,2.14,2.14,0,0,0-1-1.59,2.3,2.3,0,0,0-2-.23L2,5.82l-.11.1A1.76,1.76,0,0,0,.11,7.68V24.24A1.76,1.76,0,0,0,1.87,26H22.13a1.76,1.76,0,0,0,1.76-1.76V7.68A1.76,1.76,0,0,0,22.13,5.92ZM19.19,1.08a1.3,1.3,0,0,1,1.12.13,1.14,1.14,0,0,1,.54.84V5.92h-16Zm3.7,23.16a.76.76,0,0,1-.76.75H1.87a.76.76,0,0,1-.76-.75V7.68a.75.75,0,0,1,.33-.62l.39-.13h20.3a.75.75,0,0,1,.76.75Z"/><path class="cls-1" d="M19.38,18.38a2.1,2.1,0,1,1,2.1-2.1A2.1,2.1,0,0,1,19.38,18.38Zm0-3.19a1.09,1.09,0,1,0,1.09,1.09A1.08,1.08,0,0,0,19.38,15.19Z"/></svg>