<svg id="Layer_1" data-name="Layer 1" xmlns="http://www.w3.org/2000/svg" width="32" height="36" viewBox="0 0 33.49 36.62"><defs><style>.cls-1{fill:#fff;}</style></defs><title>wallet</title><path class="cls-1" d="M27.66,10.69h-.3v-4a1,1,0,0,0,0-.25A2.27,2.27,0,0,0,26.29,4.7a2.5,2.5,0,0,0-2.16-.25L6,10.58l-.12.11a1.88,1.88,0,0,0-1.92,1.87V30.41a1.9,1.9,0,0,0,1.9,1.9H27.66a1.9,1.9,0,0,0,1.89-1.9h0V12.58A1.89,1.89,0,0,0,27.66,10.69ZM24.49,5.47a1.43,1.43,0,0,1,1.21.14,1.26,1.26,0,0,1,.58.91v4.17H9.05Zm4,24.94a.81.81,0,0,1-.81.81H5.84A.82.82,0,0,1,5,30.41V12.58a.81.81,0,0,1,.35-.67l.42-.14H27.66a.8.8,0,0,1,.81.8h0Z"/><path class="cls-1" d="M24.69,24.1A2.26,2.26,0,1,1,27,21.84a2.26,2.26,0,0,1-2.27,2.26Zm0-3.43a1.18,1.18,0,1,0,1.18,1.17,1.17,1.17,0,0,0-1.18-1.17Z"/></svg>