<?xml version="1.0" encoding="UTF-8"?>
<svg width="9px" height="9px" viewBox="0 0 9 9" version="1.1" xmlns="http://www.w3.org/2000/svg" xmlns:xlink="http://www.w3.org/1999/xlink">
    <!-- Generator: Sketch 61 (89581) - https://sketch.com -->
    <title>arrow</title>
    <desc>Created with Sketch.</desc>
    <g id="Page-1" stroke="none" stroke-width="1" fill="none" fill-rule="evenodd">
        <g id="Transaction-detail" transform="translate(-280.000000, -689.000000)" fill="#416ED5">
            <path d="M288.397183,692.826582 L288.854706,693.272514 C289.048431,693.461332 289.048431,693.766656 288.854706,693.953465 L284.850355,697.858386 C284.656629,698.047205 284.343371,698.047205 284.151706,697.858386 L280.145294,693.953465 C279.951569,693.764647 279.951569,693.459324 280.145294,693.272514 L280.602817,692.826582 C280.798603,692.635755 281.118044,692.639772 281.309709,692.834617 L283.675635,695.255105 L283.675635,689.482089 C283.675635,689.214931 283.896153,689 284.170254,689 L284.829746,689 C285.103847,689 285.324365,689.214931 285.324365,689.482089 L285.324365,695.255105 L287.690291,692.834617 C287.881956,692.637764 288.201397,692.633746 288.397183,692.826582 Z" id="arrow"></path>
        </g>
    </g>
</svg>