<svg xmlns="http://www.w3.org/2000/svg" width="48" height="48" viewBox="0 0 48 48">
    <g fill="none" fill-rule="evenodd" opacity=".6" transform="translate(1 1)">
        <circle cx="23" cy="23" r="23" stroke="#FFF"/>
        <path fill="#FFF" d="M18 18.233c-.226.135-.652.984-.46 1.729.288 1.107 1.308 1.54 1.308 1.54s1.596 2.045 1.596 3.234c0 1.19 0 1.651-.428 2.644-.427.992-8.824 2.181-9.18 8.03h12.22l12.356.002c-.357-5.85-8.753-7.039-9.18-8.031-.429-.992-.429-1.454-.429-2.644 0-1.189 1.597-3.234 1.597-3.234s1.02-.432 1.307-1.54c.193-.745-.234-1.593-.46-1.728.605-1.792.996-7.173-5.056-7.396a.548.548 0 0 0-.091-.003c-6.095.224-5.704 5.606-5.1 7.397z"/>
    </g>
</svg>
