<?xml version="1.0" encoding="UTF-8"?>
<svg width="12px" height="12px" viewBox="0 0 12 12" version="1.1" xmlns="http://www.w3.org/2000/svg" xmlns:xlink="http://www.w3.org/1999/xlink">
    <!-- Generator: Sketch 61 (89581) - https://sketch.com -->
    <title>check</title>
    <desc>Created with Sketch.</desc>
    <g id="Page-1" stroke="none" stroke-width="1" fill="none" fill-rule="evenodd">
        <g id="Transaction-detail" transform="translate(-460.000000, -248.000000)" fill="#21D3B1">
            <g id="success" transform="translate(444.000000, 239.000000)">
                <path d="M28,15 C28,18.3137177 25.3137177,21 22,21 C18.6862823,21 16,18.3137177 16,15 C16,11.6862823 18.6862823,9 22,9 C25.3137177,9 28,11.6862823 28,15 Z M21.3059839,18.1769516 L25.7575968,13.7253387 C25.9087581,13.5741774 25.9087581,13.3290726 25.7575968,13.1779113 L25.2101694,12.6304839 C25.0590081,12.4792984 24.8139032,12.4792984 24.6627177,12.6304839 L21.0322581,16.2609194 L19.3372823,14.5659435 C19.186121,14.4147823 18.9410161,14.4147823 18.7898306,14.5659435 L18.2424032,15.113371 C18.0912419,15.2645323 18.0912419,15.5096371 18.2424032,15.6607984 L20.7585323,18.1769274 C20.9097177,18.3281129 21.1547984,18.3281129 21.3059839,18.1769516 L21.3059839,18.1769516 Z" id="check"></path>
            </g>
        </g>
    </g>
</svg>