<?xml version="1.0" encoding="UTF-8"?>
<svg width="13px" height="14px" viewBox="0 0 13 14" version="1.1" xmlns="http://www.w3.org/2000/svg" xmlns:xlink="http://www.w3.org/1999/xlink">
    <!-- Generator: Sketch 61 (89581) - https://sketch.com -->
    <title>copy</title>
    <desc>Created with Sketch.</desc>
    <g id="Page-1" stroke="none" stroke-width="1" fill="none" fill-rule="evenodd" opacity="0.5">
        <g id="Transaction-detail" transform="translate(-992.000000, -191.000000)" fill="#2B3954">
            <g id="copy" transform="translate(992.000000, 191.000000)">
                <path d="M11.8655742,1.80307422 L10.4469258,0.384425781 C10.2007857,0.138283867 9.86694751,0 9.51885156,0 L4.8125,0 C4.08761719,0 3.5,0.587617187 3.5,1.3125 L3.5,2.625 L1.3125,2.625 C0.587617187,2.625 0,3.21261719 0,3.9375 L0,12.6875 C0,13.4123828 0.587617187,14 1.3125,14 L7.4375,14 C8.16238281,14 8.75,13.4123828 8.75,12.6875 L8.75,11.375 L10.9375,11.375 C11.6623828,11.375 12.25,10.7873828 12.25,10.0625 L12.25,2.73114844 C12.25,2.38305249 12.1117161,2.04921431 11.8655742,1.80307422 Z M7.2734375,12.6875 L1.4765625,12.6875 C1.38595328,12.6875 1.3125,12.6140467 1.3125,12.5234375 L1.3125,4.1015625 C1.3125,4.01095328 1.38595328,3.9375 1.4765625,3.9375 L3.5,3.9375 L3.5,10.0625 C3.5,10.7873828 4.08761719,11.375 4.8125,11.375 L7.4375,11.375 L7.4375,12.5234375 C7.4375,12.6140467 7.36404672,12.6875 7.2734375,12.6875 Z M10.7734375,10.0625 L4.9765625,10.0625 C4.88595328,10.0625 4.8125,9.98904672 4.8125,9.8984375 L4.8125,1.4765625 C4.8125,1.38595328 4.88595328,1.3125 4.9765625,1.3125 L7.875,1.3125 L7.875,3.71875 C7.875,4.08119141 8.16880859,4.375 8.53125,4.375 L10.9375,4.375 L10.9375,9.8984375 C10.9375,9.98904672 10.8640467,10.0625 10.7734375,10.0625 L10.7734375,10.0625 Z M10.9375,3.0625 L9.1875,3.0625 L9.1875,1.3125 L9.450875,1.3125 C9.49437891,1.3125 9.53610547,1.32978125 9.56689453,1.36054297 L10.889457,2.68310547 C10.9202235,2.71387717 10.9375,2.75561093 10.9375,2.799125 L10.9375,3.0625 L10.9375,3.0625 Z"></path>
            </g>
        </g>
    </g>
</svg>