<?xml version="1.0" encoding="UTF-8"?>
<svg width="12px" height="12px" viewBox="0 0 12 12" version="1.1" xmlns="http://www.w3.org/2000/svg" xmlns:xlink="http://www.w3.org/1999/xlink">
    <!-- Generator: Sketch 61 (89581) - https://sketch.com -->
    <title>Mask</title>
    <desc>Created with Sketch.</desc>
    <g id="Page-1" stroke="none" stroke-width="1" fill="none" fill-rule="evenodd">
        <g id="Transaction-detail-failed" transform="translate(-460.000000, -248.000000)" fill="#EE3131">
            <g id="failed" transform="translate(444.000000, 239.000000)">
                <path d="M22,9 C18.6854839,9 16,11.6854839 16,15 C16,18.3145161 18.6854839,21 22,21 C25.3145161,21 28,18.3145161 28,15 C28,11.6854839 25.3145161,9 22,9 Z M24.9419355,16.575 C25.0556452,16.6887097 25.0556452,16.8725806 24.9419355,16.9862903 L23.983871,17.9419355 C23.8701613,18.0556452 23.6862903,18.0556452 23.5725806,17.9419355 L22,16.3548387 L20.425,17.9419355 C20.3112903,18.0556452 20.1274194,18.0556452 20.0137097,17.9419355 L19.0580645,16.983871 C18.9443548,16.8701613 18.9443548,16.6862903 19.0580645,16.5725806 L20.6451613,15 L19.0580645,13.425 C18.9443548,13.3112903 18.9443548,13.1274194 19.0580645,13.0137097 L20.016129,12.0556452 C20.1298387,11.9419355 20.3137097,11.9419355 20.4274194,12.0556452 L22,13.6451613 L23.575,12.0580645 C23.6887097,11.9443548 23.8725806,11.9443548 23.9862903,12.0580645 L24.9443548,13.016129 C25.0580645,13.1298387 25.0580645,13.3137097 24.9443548,13.4274194 L23.3548387,15 L24.9419355,16.575 Z" id="Mask"></path>
            </g>
        </g>
    </g>
</svg>