<svg xmlns="http://www.w3.org/2000/svg" width="32" height="31" viewBox="0 0 32 31">
    <g fill="none" fill-rule="evenodd" stroke="#FEFEFE" stroke-width="1.089">
        <path d="M15.527.63L8.04 4.77v8.183l7.387 3.793 7.586-3.793V4.605z"/>
        <path d="M8.04 4.77l7.487 3.81.1 8.165M15.527 8.58l7.486-3.976M8.04 13.374L.553 17.515v8.183L7.94 29.49l7.586-3.793V17.35z"/>
        <path d="M.553 17.515l7.488 3.809.1 8.166M8.04 21.324l7.487-3.974"/>
        <g>
            <path d="M23.112 13.267l-7.486 4.14v8.183l7.387 3.793 7.586-3.793v-8.348z"/>
            <path d="M15.626 17.408l7.486 3.809.1 8.165M23.112 21.217l7.487-3.975"/>
        </g>
    </g>
</svg>
