<svg xmlns="http://www.w3.org/2000/svg" width="31" height="23" viewBox="0 0 31 23">
    <g fill="none" fill-rule="evenodd" stroke="#FEFEFE" stroke-width=".9">
        <path d="M.47 21.882h30.06V.46H.47zM.47 5.343h30.06"/>
        <path d="M24.688 3.166c0 .237-.197.43-.44.43a.435.435 0 0 1-.44-.43c0-.238.196-.43.44-.43.243 0 .44.192.44.43zM27.765 3.166c0 .237-.197.43-.44.43a.435.435 0 0 1-.44-.43c0-.238.196-.43.44-.43.243 0 .44.192.44.43zM17.17 8.8l1.948 2.032-1.948 2.21M14.125 18.7l-1.948-2.033 1.948-2.21M12.212 10.92h6.906M12.177 16.58h6.907"/>
    </g>
</svg>
