<svg xmlns="http://www.w3.org/2000/svg" xmlns:xlink="http://www.w3.org/1999/xlink" height="30" width="30" id="Capa_1" data-name="Capa 1" viewBox="0 0 30 30"><defs><style>.cls-1{fill:url(#linear-gradient);}.cls-2{fill:url(#linear-gradient-2);}.cls-3{fill:url(#linear-gradient-3);}.cls-4{fill:url(#linear-gradient-4);}.cls-5{fill:url(#linear-gradient-5);}.cls-6{fill:url(#linear-gradient-6);}.cls-7{fill:url(#linear-gradient-7);}.cls-8{fill:url(#linear-gradient-8);}.cls-9{fill:url(#linear-gradient-9);}.cls-10{fill:url(#linear-gradient-10);}</style><linearGradient id="linear-gradient" x1="5.03" y1="-5.91" x2="1.45" y2="33.61" gradientUnits="userSpaceOnUse"><stop offset="0" stop-color="#2af598"/><stop offset="1" stop-color="#009efd"/></linearGradient><linearGradient id="linear-gradient-2" x1="3.28" y1="-6.07" x2="-0.31" y2="33.45" xlink:href="#linear-gradient"/><linearGradient id="linear-gradient-3" x1="13.03" y1="-5.29" x2="9.43" y2="34.36" xlink:href="#linear-gradient"/><linearGradient id="linear-gradient-4" x1="8.45" y1="-5.6" x2="4.86" y2="33.92" xlink:href="#linear-gradient"/><linearGradient id="linear-gradient-5" x1="28.71" y1="16.66" x2="28.56" y2="18.31" xlink:href="#linear-gradient"/><linearGradient id="linear-gradient-6" x1="18.07" y1="-4.73" x2="14.49" y2="34.8" xlink:href="#linear-gradient"/><linearGradient id="linear-gradient-7" x1="29.61" y1="-3.68" x2="26.02" y2="35.84" xlink:href="#linear-gradient"/><linearGradient id="linear-gradient-8" x1="26.93" y1="-3.92" x2="23.35" y2="35.6" xlink:href="#linear-gradient"/><linearGradient id="linear-gradient-9" x1="22.93" y1="-4.29" x2="19.35" y2="35.24" xlink:href="#linear-gradient"/><linearGradient id="linear-gradient-10" x1="17.23" y1="-4.8" x2="13.64" y2="34.72" xlink:href="#linear-gradient"/></defs><title>refresh</title><path class="cls-1" d="M3.13,19.62,1,20.29l.05.15H1a15.32,15.32,0,0,0,1.24,2.46l1.91-1.19A13.33,13.33,0,0,1,3.13,19.62Zm-1,.41h0Z"/><path class="cls-2" d="M2.48,17.37c-.06-.31-.1-.63-.14-.95A13,13,0,0,1,2.26,15h0V14.9L0,15A14.84,14.84,0,0,0,.1,16.67c0,.38.1.75.17,1.12h0v.08l2.21-.42Z"/><path class="cls-3" d="M8.36,28.42a15,15,0,0,0,2.59,1l.12,0,.61-2.15a13.88,13.88,0,0,1-2.32-.89Z"/><path class="cls-4" d="M5.61,23.59l-.12-.12L4,25.11A15.1,15.1,0,0,0,6,27H6l.08.06,1.27-1.85a12.41,12.41,0,0,1-1.74-1.58Zm-.82.76Z"/><polygon class="cls-5" points="28.63 17.48 28.64 17.48 28.64 17.48 28.63 17.48"/><path class="cls-6" d="M16.22,27.65a11.71,11.71,0,0,1-1.19.06c-.39,0-1.4-.05-1.4-.05l0,2.24c.45,0,.91.06,1.37.06a12.94,12.94,0,0,0,1.39-.07l-.11-1.12Z"/><path class="cls-7" d="M26.9,19.54h0a12.43,12.43,0,0,1-1,2.1l-.13.22,2,1.08.07-.12h0A15.42,15.42,0,0,0,29,20.35l-2-.93Z"/><path class="cls-8" d="M24.44,23.52a13.22,13.22,0,0,1-2,1.76l1.38,1.77.21-.14a15.71,15.71,0,0,0,2-1.87l-1.57-1.63ZM23.37,26h0l0,0Z"/><path class="cls-9" d="M20.71,26.36h0a13,13,0,0,1-2.4.94L19,29.43l.19-.05a15.76,15.76,0,0,0,2.57-1l-1-2Zm-1.88,1.92h0v0Z"/><path class="cls-10" d="M26.7,5.66A15,15,0,0,0,5.63,3.33,15.35,15.35,0,0,0,4.37,4.48V.58H2.12V8.46h7.93V6.2H5.84A12.54,12.54,0,0,1,15,2.29a13.67,13.67,0,0,1,1.42.08A12.74,12.74,0,0,1,27.66,16.43q0,.33-.09.66l2.22.39c0-.13.09-.66.11-.8h0A14.92,14.92,0,0,0,26.7,5.66Z"/></svg>