<?xml version="1.0" encoding="UTF-8"?>
<svg width="20px" height="20px" viewBox="0 0 20 20" version="1.1" xmlns="http://www.w3.org/2000/svg" xmlns:xlink="http://www.w3.org/1999/xlink">
    <!-- Generator: Sketch 61 (89581) - https://sketch.com -->
    <title>Shape</title>
    <desc>Created with Sketch.</desc>
    <g id="Page-1" stroke="none" stroke-width="1" fill="none" fill-rule="evenodd">
        <g id="search-expanded" transform="translate(-300.000000, -20.000000)" fill="#416ED5" fill-rule="nonzero">
            <path d="M319.823253,38.8275862 L315.758711,34.7931034 C318.789894,31.2758621 318.617668,25.9655172 315.276477,22.6206897 C313.554214,20.862069 311.24638,20 308.972993,20 C306.699605,20 304.391772,20.862069 302.635063,22.6206897 C299.121646,26.137931 299.121646,31.7931034 302.635063,35.3103448 C304.357327,37.0344828 306.66516,37.9310345 308.972993,37.9310345 C311.039709,37.9310345 313.14087,37.2068966 314.794243,35.7586207 L318.858785,39.8275862 C318.962121,39.9310345 319.134347,40 319.306574,40 C319.4788,40 319.651026,39.9310345 319.788807,39.7931034 C320.064369,39.5517241 320.064369,39.1034483 319.823253,38.8275862 Z M303.599531,34.3103448 C302.152829,32.8965517 301.395033,30.9655172 301.395033,28.9655172 C301.395033,26.9655172 302.187275,25.0344828 303.599531,23.5862069 C305.046232,22.137931 306.940722,21.3793103 308.972993,21.3793103 C311.005264,21.3793103 312.899753,22.1724138 314.346455,23.5862069 C315.758711,25.0344828 316.550952,26.9310345 316.550952,28.9655172 C316.550952,31 315.758711,32.8965517 314.346455,34.3448276 C312.899753,35.7586207 310.970818,36.5517241 308.972993,36.5517241 C306.975167,36.5517241 305.046232,35.7586207 303.599531,34.3103448 Z" id="Shape"></path>
        </g>
    </g>
</svg>