<?xml version="1.0" encoding="UTF-8"?>
<svg width="20px" height="20px" viewBox="0 0 20 20" version="1.1" xmlns="http://www.w3.org/2000/svg" xmlns:xlink="http://www.w3.org/1999/xlink">
    <!-- Generator: Sketch 61 (89581) - https://sketch.com -->
    <title>Shape</title>
    <desc>Created with Sketch.</desc>
    <g id="Page-1" stroke="none" stroke-width="1" fill="none" fill-rule="evenodd">
        <g id="mobile-transactions" transform="translate(-276.000000, -22.000000)" fill="#FFFFFF" fill-rule="nonzero">
            <path d="M295.823253,40.8275862 L291.758711,36.7931034 C294.789894,33.2758621 294.617668,27.9655172 291.276477,24.6206897 C289.554214,22.862069 287.24638,22 284.972993,22 C282.699605,22 280.391772,22.862069 278.635063,24.6206897 C275.121646,28.137931 275.121646,33.7931034 278.635063,37.3103448 C280.357327,39.0344828 282.66516,39.9310345 284.972993,39.9310345 C287.039709,39.9310345 289.14087,39.2068966 290.794243,37.7586207 L294.858785,41.8275862 C294.962121,41.9310345 295.134347,42 295.306574,42 C295.4788,42 295.651026,41.9310345 295.788807,41.7931034 C296.064369,41.5517241 296.064369,41.1034483 295.823253,40.8275862 Z M279.599531,36.3103448 C278.152829,34.8965517 277.395033,32.9655172 277.395033,30.9655172 C277.395033,28.9655172 278.187275,27.0344828 279.599531,25.5862069 C281.046232,24.137931 282.940722,23.3793103 284.972993,23.3793103 C287.005264,23.3793103 288.899753,24.1724138 290.346455,25.5862069 C291.758711,27.0344828 292.550952,28.9310345 292.550952,30.9655172 C292.550952,33 291.758711,34.8965517 290.346455,36.3448276 C288.899753,37.7586207 286.970818,38.5517241 284.972993,38.5517241 C282.975167,38.5517241 281.046232,37.7586207 279.599531,36.3103448 Z" id="Shape"></path>
        </g>
    </g>
</svg>