<svg id="Capa_1" data-name="Capa 1" xmlns="http://www.w3.org/2000/svg" viewBox="0 0 512 512"><defs><style>.cls-1{fill:#fff;}</style></defs><title>setting</title><g id="Settings"><path class="cls-1" d="M510.39,227.57c-.81-7.19-9.2-12.6-16.46-12.6a56.53,56.53,0,0,1-38.69-98.39,14.21,14.21,0,0,0,1.56-19.3,253.55,253.55,0,0,0-40.56-41,14.25,14.25,0,0,0-19.45,1.57c-15.26,16.9-42.67,23.19-63.85,14.35a56.87,56.87,0,0,1-34.58-55.58,14.21,14.21,0,0,0-12.57-15,255.54,255.54,0,0,0-57.59-.15A14.24,14.24,0,0,0,215.53,16.2a57,57,0,0,1-35.06,54.62c-20.92,8.55-48.14,2.32-63.37-14.43a14.27,14.27,0,0,0-19.32-1.62A253.8,253.8,0,0,0,56.37,95.71a14.25,14.25,0,0,0,1.52,19.46A56.73,56.73,0,0,1,72.21,179c-8.84,21.05-30.69,34.61-55.7,34.61A13.92,13.92,0,0,0,1.72,226.22a256.35,256.35,0,0,0-.11,58.21C2.41,291.66,11.06,297,18.4,297c22.29-.57,43.69,13.24,52.67,35.08a56.93,56.93,0,0,1-14.31,63.31A14.22,14.22,0,0,0,55.2,414.7a254,254,0,0,0,40.5,41,14.23,14.23,0,0,0,19.48-1.54c15.32-16.94,42.73-23.21,63.82-14.36a56.77,56.77,0,0,1,34.64,55.56,14.21,14.21,0,0,0,12.56,15A254.62,254.62,0,0,0,255.69,512a251.89,251.89,0,0,0,28.1-1.56,14.25,14.25,0,0,0,12.68-14.66,56.9,56.9,0,0,1,35-54.59c21.07-8.6,48.17-2.31,63.4,14.43a14.32,14.32,0,0,0,19.33,1.61,254.62,254.62,0,0,0,41.41-41,14.21,14.21,0,0,0-1.53-19.45A56.71,56.71,0,0,1,439.76,333a57.3,57.3,0,0,1,52.37-34.71l3.16.08a14.25,14.25,0,0,0,15-12.55A256.44,256.44,0,0,0,510.39,227.57Zm-254,114.36a85.39,85.39,0,1,1,85.38-85.39A85.48,85.48,0,0,1,256.41,341.93Z"/></g></svg>