<svg xmlns="http://www.w3.org/2000/svg" width="20" height="21" viewBox="0 0 20 21">
    <g fill="#999" fill-rule="evenodd">
        <path d="M.75 20.086h3.628V7.647H.75zM.75 2.74c0 1.251.96 2.268 2.152 2.268 1.186 0 2.148-1.017 2.148-2.269 0-1.252-.962-2.268-2.148-2.268C1.71.47.75 1.487.75 2.739zM14.668 6.451c-1.805 0-3.015 1.043-3.51 2.033h-.05v-1.72H7.553v12.585h3.705v-6.224c0-1.642.293-3.233 2.223-3.233 1.903 0 1.927 1.877 1.927 3.337v6.12h3.708v-6.902c0-3.39-.694-5.996-4.448-5.996"/>
    </g>
</svg>
