<svg xmlns="http://www.w3.org/2000/svg" xmlns:xlink="http://www.w3.org/1999/xlink" width="20" height="21" viewBox="0 0 20 21">
    <defs>
        <path id="a" d="M0 0h19.382v20.446H0z"/>
    </defs>
    <g fill="none" fill-rule="evenodd" transform="translate(.175 .47)">
        <mask id="b" fill="#fff">
            <use xlink:href="#a"/>
        </mask>
        <path fill="#999" d="M10.918 7.683L7.284 8.93l1.18 3.834 3.636-1.246-1.182-3.834zm7.27 5.576l-1.739.596.583 1.894c.293.95-.266 1.976-1.182 2.255-.879.266-1.793-.236-2.1-1.13l-.584-1.894c-1.184.407-2.447.84-3.635 1.246l.584 1.894c.293.95-.266 1.976-1.183 2.254-.879.267-1.793-.235-2.1-1.13l-.583-1.892-1.797.615c-.9.309-1.873-.28-2.136-1.248-.254-.926.222-1.892 1.07-2.215l1.796-.615L4 10.054l-1.797.616c-.9.308-1.873-.281-2.136-1.247-.253-.927.223-1.893 1.07-2.216l1.795-.616-.565-1.836c-.295-.956.201-1.984 1.108-2.294.907-.312 1.88.212 2.176 1.169l.565 1.836L9.85 4.22l-.566-1.836C8.991 1.428 9.487.4 10.394.09c.907-.311 1.88.212 2.175 1.169l.566 1.834 1.74-.596c.906-.31 1.88.213 2.175 1.17.294.957-.202 1.984-1.109 2.295l-1.74.596 1.181 3.833 1.74-.597c.906-.31 1.88.213 2.175 1.17.295.956-.202 1.984-1.108 2.295z" mask="url(#b)"/>
    </g>
</svg>
