<?xml version="1.0" encoding="iso-8859-1"?>
<!-- Generator: Adobe Illustrator 19.0.0, SVG Export Plug-In . SVG Version: 6.00 Build 0)  -->
<svg version="1.1" id="Layer_1" xmlns="http://www.w3.org/2000/svg" xmlns:xlink="http://www.w3.org/1999/xlink" x="0px" y="0px"
	 viewBox="0 0 512 512"  width="22" height="22" style="enable-background:new 0 0 512 512;" xml:space="preserve">
<circle style="fill:#999;" cx="256" cy="256" r="256"/>

<path style="fill:#171717;" d="M164.689,311.141L82.127,269.86c-2.263-1.132-2.285-4.353-0.038-5.516L395.75,102.105
	c2.304-1.192,4.964,0.811,4.456,3.355l-54.004,270.017c-0.385,1.927-2.446,3.011-4.253,2.237l-73.393-31.453
	c-0.879-0.377-1.884-0.326-2.721,0.139l-94.839,52.688c-2.062,1.145-4.597-0.345-4.597-2.705v-82.474
	C166.4,312.736,165.738,311.665,164.689,311.141z"/>
<path style="fill:#999;" d="M200.31,338.967l-0.513-82.428c-0.003-0.528,0.27-1.018,0.72-1.293l133.899-81.798
	c1.518-0.927,3.106,1.083,1.852,2.345l-101.9,102.624c-0.112,0.114-0.207,0.244-0.278,0.387l-17.43,34.858l-13.509,25.988
	C202.426,341.045,200.32,340.538,200.31,338.967z"/>
</svg>
