<svg id="arrows" xmlns="http://www.w3.org/2000/svg" viewBox="0 0 20 15" width="20px" height="15px">
  <defs>
    <style>
      .cls-1 {
        fill: #fff;
      }
    </style>
  </defs>
  <path id="Shape" class="cls-1" d="M12.917,3.334H2.835l2.022-1.77A.418.418,0,0,0,5,1.25V.417a.417.417,0,0,0-.7-.31L.138,3.857a.417.417,0,0,0,0,.619L4.3,8.227a.417.417,0,0,0,.279.107A.411.411,0,0,0,4.753,8.3.416.416,0,0,0,5,7.917V7.084a.418.418,0,0,0-.142-.314L2.835,5H12.917a.416.416,0,0,0,.417-.417V3.75A.416.416,0,0,0,12.917,3.334Z" transform="translate(0 6.666)"/>
  <path id="Shape-2" data-name="Shape" class="cls-1" d="M13.2,3.857,9.029.107a.417.417,0,0,0-.7.31V1.25a.418.418,0,0,0,.142.314L10.5,3.333H.417A.416.416,0,0,0,0,3.75v.833A.416.416,0,0,0,.417,5H10.5L8.476,6.769a.418.418,0,0,0-.142.314v.833a.416.416,0,0,0,.247.38.411.411,0,0,0,.169.036.417.417,0,0,0,.279-.107L13.2,4.476a.417.417,0,0,0,0-.619Z" transform="translate(6.667 0)"/>
</svg>
