<svg xmlns="http://www.w3.org/2000/svg" xmlns:xlink="http://www.w3.org/1999/xlink" width="24" height="24" viewBox="0 0 24 24">
    <defs>
        <path id="a" d="M22.522 20.685l-5.876-5.92a.656.656 0 0 1-.072-.826c2.409-3.695 1.847-8.777-1.708-11.813-3.42-2.92-8.626-2.82-11.94.222-3.803 3.492-3.9 9.435-.286 13.05 3.08 3.084 7.85 3.458 11.351 1.142a.653.653 0 0 1 .83.072l5.863 5.907a.649.649 0 0 0 .92.001l.917-.918a.65.65 0 0 0 .001-.917zM4.475 13.56a6.446 6.446 0 0 1 0-9.1 6.434 6.434 0 0 1 9.094 0 6.446 6.446 0 0 1 0 9.1 6.434 6.434 0 0 1-9.094 0z"/>
    </defs>
    <g fill="none" fill-rule="evenodd" transform="translate(.388 .6)">
        <mask id="b" fill="#fff">
            <use xlink:href="#a"/>
        </mask>
        <use fill="#FFF" xlink:href="#a"/>
        <g fill="#717171" mask="url(#b)">
            <path d="M0 0h22.94v22.94H0z"/>
        </g>
    </g>
</svg>
