<svg xmlns="http://www.w3.org/2000/svg" xmlns:xlink="http://www.w3.org/1999/xlink" width="18" height="22" viewBox="0 0 18 22">
    <defs>
        <path id="a" d="M0 0h16.711v20.923H0z"/>
    </defs>
    <g fill="none" fill-rule="evenodd" transform="translate(.725 .47)">
        <mask id="b" fill="#fff">
            <use xlink:href="#a"/>
        </mask>
        <path fill="#999" d="M2.043.035S3.49-.077 5.515 1.493c0 0 2.291-1.016 6.066-.125 0 0 2.248-1.566 3.4-1.347 0 0 .766 1.507.249 3.347 0 0 1.83 1.696 1.422 5.306-.407 3.61-2.12 4.829-5.784 5.272 0 0 1.158.6 1.138 3.328-.019 2.729-.191 3.187.567 3.649h-7.66s.614-.332.609-1.367L5.508 17.5s-2.679.594-3.582-1.102C1.024 14.7.72 14.31.226 13.972c-.495-.338-.022-.527-.022-.527s.578-.289 1.86 1.018c1.283 1.307 1.2 1.904 3.562 1.114 0 0 .148-1.338.937-1.62 0 0-3.901-.127-5.366-3.126-1.466-3-.354-6.369.64-7.168 0 0-.659-2.56.206-3.628" mask="url(#b)"/>
    </g>
</svg>
